<?xml version="1.0" encoding="utf-8"?>
<!-- Generator: Adobe Illustrator 13.0.0, SVG Export Plug-In . SVG Version: 6.00 Build 14948)  -->
<!DOCTYPE svg PUBLIC "-//W3C//DTD SVG 1.1//EN" "http://www.w3.org/Graphics/SVG/1.1/DTD/svg11.dtd">
<svg version="1.1" id="Calque_1" xmlns="http://www.w3.org/2000/svg" xmlns:xlink="http://www.w3.org/1999/xlink" x="0px" y="0px"
	 width="300px" height="300px" viewBox="0 0 300 300" enable-background="new 0 0 300 300" xml:space="preserve">
<g>
	<g>
		<g>
			<g>
				<polygon fill="#515254" points="103.814,66.42 103.738,65.685 103.071,59.308 46.875,68.732 66.647,158.262 112.111,148.904 
					92.798,65.593 				"/>
				<polygon fill="#515254" points="195.703,71.09 199.5,71.461 195.782,52.242 154.561,59.308 155.321,70.292 155.497,70.304 
					165.869,161.639 210.79,155.759 				"/>
				<polygon opacity="0.76" fill="#515254" points="155.321,70.292 103.814,66.42 112.437,148.837 112.111,148.904 115.735,164.545 
					166.2,164.545 165.869,161.639 161.669,162.188 				"/>
				<polygon fill="#515254" points="103.814,66.42 92.798,65.593 112.111,148.904 112.437,148.837 				"/>
				<polygon opacity="0.76" fill="#515254" points="103.814,66.42 92.798,65.593 112.111,148.904 112.437,148.837 				"/>
				<polygon fill="#515254" points="155.321,70.292 161.669,162.188 165.869,161.639 155.497,70.304 				"/>
				<polygon opacity="0.76" fill="#515254" points="155.321,70.292 161.669,162.188 165.869,161.639 155.497,70.304 				"/>
				<polygon opacity="0.76" fill="#515254" points="210.79,155.759 213.334,170.041 252.125,170.041 243.896,75.802 199.5,71.461 
					215.685,155.119 				"/>
				<polygon fill="#515254" points="210.79,155.759 215.685,155.119 199.5,71.461 195.703,71.09 				"/>
				<polygon opacity="0.76" fill="#515254" points="210.79,155.759 215.685,155.119 199.5,71.461 195.703,71.09 				"/>
			</g>
			<g>
				<g>
					<path fill="#FFFFFF" d="M140.664,112.288c-1.185,1.578-1.62,3.515-1.371,5.36l-9.983,3.692c-0.36-0.503-0.779-0.943-1.24-1.333
						c-0.508-0.407-1.018-0.715-1.553-0.983l1.158-10.912c1.821-0.152,3.53-1.036,4.748-2.597c2.332-3.068,1.762-7.57-1.265-10.083
						c-3.048-2.485-7.418-2.014-9.755,1.032c-2.349,3.072-1.782,7.571,1.267,10.078c0.492,0.413,1.024,0.731,1.571,0.97
						l-1.155,10.921c-1.834,0.129-3.565,1.004-4.777,2.578c-2.35,3.08-1.776,7.585,1.272,10.084c3.04,2.487,7.402,2.041,9.752-1.028
						c1.186-1.571,1.611-3.535,1.357-5.397l9.964-3.677c0.362,0.495,0.773,0.972,1.283,1.377c3.028,2.506,7.399,2.041,9.732-1.022
						c2.348-3.074,1.781-7.575-1.253-10.09C147.375,108.775,143.003,109.233,140.664,112.288L140.664,112.288z"/>
				</g>
				<g>
					<path fill-rule="evenodd" clip-rule="evenodd" fill="#FFFFFF" d="M176.879,130.601l0.054-8.792
						c2.735-0.757,5.087-3.727,4.978-8.807c1.725,3.025,4.189,4.33,6.433,4.226l2.58,8.343l-4.936,3.976
						c-0.148,0.121-0.194,0.302-0.101,0.425c0.085,0.143,0.277,0.191,0.475,0.131l13.423-4.192c0.19-0.04,0.321-0.203,0.307-0.369
						c0-0.156-0.141-0.283-0.325-0.296l-6.184-0.449l-2.576-8.404c3.515-2.276,4.833-8.873-2.372-17.542
						c-2.979,0.997-5.946,2.011-8.919,3.009c-0.019,0.881-0.008,1.713,0.029,2.497c-3.092,0.085-6.184,0.154-9.276,0.231
						c-3.557,10.532-0.282,16.194,3.665,17.238l-0.021,8.731l-5.901,2.311c-0.178,0.074-0.271,0.232-0.231,0.392
						c0.054,0.161,0.222,0.27,0.422,0.27h14.061c0.2,0,0.369-0.109,0.411-0.27c0.045-0.16-0.053-0.318-0.223-0.392L176.879,130.601z
						 M180.016,95.895c0.412,0,0.79,0.163,1.06,0.429c0.26,0.271,0.437,0.638,0.437,1.063c0,0.413-0.177,0.777-0.437,1.052
						c-0.27,0.268-0.647,0.427-1.06,0.427c-0.41,0-0.777-0.159-1.051-0.427c-0.273-0.274-0.43-0.639-0.43-1.052
						c0-0.425,0.156-0.792,0.43-1.063C179.238,96.058,179.605,95.895,180.016,95.895L180.016,95.895z M175.076,98.529
						c0.422,0,0.788,0.167,1.06,0.429c0.267,0.273,0.434,0.645,0.434,1.061c0,0.413-0.167,0.783-0.434,1.056
						c-0.271,0.268-0.638,0.427-1.06,0.427c-0.412,0-0.779-0.16-1.051-0.427c-0.271-0.273-0.433-0.643-0.433-1.056
						c0-0.416,0.162-0.787,0.433-1.061C174.297,98.695,174.664,98.529,175.076,98.529L175.076,98.529z M173.731,93.005
						c0.413,0,0.786,0.173,1.056,0.435c0.268,0.265,0.441,0.64,0.441,1.058c0,0.417-0.174,0.779-0.441,1.052
						c-0.27,0.273-0.643,0.432-1.056,0.432c-0.408,0-0.778-0.159-1.048-0.432c-0.271-0.272-0.439-0.635-0.439-1.052
						c0-0.418,0.168-0.793,0.439-1.058C172.953,93.179,173.323,93.005,173.731,93.005L173.731,93.005z"/>
				</g>
				<g>
					<circle fill="#FFFFFF" cx="226.729" cy="113.265" r="13.044"/>
					<g opacity="0.76">
						<line fill="none" stroke="#515254" stroke-width="1.1664" x1="226.449" y1="103.35" x2="225.848" y2="114.836"/>
						<line fill="none" stroke="#515254" stroke-width="1.1664" x1="232.924" y1="113.911" x2="225.49" y2="114.62"/>
					</g>
				</g>
				<g>
					<path fill-rule="evenodd" clip-rule="evenodd" fill="#FFFFFF" d="M85.06,93.003c-7.212,0-13.088,5.856-13.088,13.077
						c0,7.204,12.244,26.874,12.244,26.874c0.469,0.768,1.236,0.768,1.709,0c0,0,12.219-19.651,12.219-26.874
						C98.144,98.86,92.288,93.003,85.06,93.003L85.06,93.003z M85.06,96.862c4.104,0,7.445,3.32,7.445,7.426
						c0,4.112-3.341,7.443-7.445,7.443c-4.106,0-7.431-3.331-7.431-7.443C77.628,100.182,80.953,96.862,85.06,96.862L85.06,96.862z"
						/>
				</g>
			</g>
		</g>
	</g>
	<g>
		<path fill="#515254" d="M64.106,205.35v15.631h-5.764V205.35L46.98,182.996h6.296l7.944,16.699l7.947-16.699h6.3L64.106,205.35z"
			/>
		<path fill="#515254" d="M78.309,220.98v-4.96l17.552-27.85H79.055v-5.175h23.583v4.695l-17.657,28.113h17.657v5.176H78.309z"/>
		<path fill="#515254" d="M110.168,220.98v-37.984h5.764v37.984H110.168z"/>
		<path opacity="0.76" fill="#515254" d="M140.265,206.045h-8.64v14.936h-5.763v-37.984h14.403c7.414,0,12.163,4.908,12.163,11.523
			C152.428,201.137,147.679,206.045,140.265,206.045z M139.945,188.171h-8.32v12.644h8.32c4.004,0,6.722-2.295,6.722-6.295
			S143.949,188.171,139.945,188.171z"/>
		<path opacity="0.76" fill="#515254" d="M159.432,220.98v-37.984h5.764v32.809h18.297v5.176H159.432z"/>
		<path opacity="0.76" fill="#515254" d="M211.885,220.98l-2.614-7.628h-14.989l-2.609,7.628h-6.139l13.925-37.984h4.64
			l13.925,37.984H211.885z M201.914,191.586l-5.926,16.859h11.684L201.914,191.586z"/>
		<path opacity="0.76" fill="#515254" d="M246.738,220.98l-17.549-26.729v26.729h-5.762v-37.984h5.279l17.553,26.676v-26.676h5.76
			v37.984H246.738z"/>
	</g>
	<g>
		<path fill="#515254" d="M48.786,242.329c-0.494,0.497-1.274,0.798-2.178,0.798c-0.957,0-1.701-0.249-2.356-1.027v4.551h-1.806
			v-12.609h1.771v0.956c0.673-0.813,1.399-1.062,2.374-1.062c0.902,0,1.701,0.301,2.195,0.796c0.903,0.904,1.008,2.428,1.008,3.791
			S49.688,241.427,48.786,242.329z M46.129,235.547c-1.631,0-1.877,1.381-1.877,2.975c0,1.596,0.247,2.994,1.877,2.994
			c1.629,0,1.859-1.398,1.859-2.994C47.988,236.928,47.758,235.547,46.129,235.547z"/>
		<path fill="#515254" d="M58.249,242.062c-0.584,0.604-1.471,1.064-2.693,1.064c-1.221,0-2.09-0.461-2.673-1.064
			c-0.851-0.883-1.063-2.018-1.063-3.541c0-1.506,0.213-2.639,1.063-3.524c0.583-0.603,1.453-1.062,2.673-1.062
			c1.223,0,2.109,0.46,2.693,1.062c0.85,0.886,1.062,2.019,1.062,3.524C59.312,240.045,59.099,241.18,58.249,242.062z
			 M56.884,236.06c-0.334-0.337-0.796-0.513-1.329-0.513c-0.531,0-0.974,0.176-1.308,0.513c-0.55,0.549-0.622,1.487-0.622,2.462
			c0,0.973,0.072,1.914,0.622,2.462c0.334,0.337,0.777,0.532,1.308,0.532c0.532,0,0.994-0.195,1.329-0.532
			c0.549-0.548,0.62-1.489,0.62-2.462C57.504,237.547,57.433,236.608,56.884,236.06z"/>
		<path fill="#515254" d="M67.181,243.02v-0.903c-0.62,0.675-1.488,1.011-2.392,1.011c-0.922,0-1.683-0.301-2.212-0.814
			c-0.692-0.674-0.905-1.523-0.905-2.533v-5.738h1.808v5.473c0,1.4,0.797,2.002,1.806,2.002c1.011,0,1.859-0.621,1.859-2.002v-5.473
			h1.807v8.979H67.181z"/>
		<path fill="#515254" d="M76.766,236.148c-0.406-0.406-0.725-0.602-1.344-0.602c-0.975,0-1.79,0.779-1.79,2.019v5.454h-1.806
			v-8.979h1.77v0.974c0.46-0.636,1.383-1.08,2.392-1.08c0.868,0,1.522,0.231,2.142,0.85L76.766,236.148z"/>
		<path fill="#515254" d="M86.763,243.127c-1.47,0-2.709-0.249-3.773-1.293l1.188-1.186c0.725,0.742,1.7,0.938,2.586,0.938
			c1.097,0,1.967-0.39,1.967-1.242c0-0.6-0.338-0.99-1.206-1.061l-1.435-0.124c-1.682-0.142-2.656-0.903-2.656-2.48
			c0-1.753,1.505-2.744,3.384-2.744c1.345,0,2.494,0.284,3.33,1.011l-1.134,1.15c-0.568-0.479-1.364-0.655-2.216-0.655
			c-1.08,0-1.628,0.478-1.628,1.15c0,0.531,0.283,0.938,1.238,1.026l1.418,0.124c1.682,0.144,2.674,0.94,2.674,2.535
			C90.5,242.152,88.907,243.127,86.763,243.127z"/>
		<path fill="#515254" d="M92.648,233.793v-3.383h1.787v3.383H92.648z"/>
		<path fill="#515254" d="M103.258,242.062c-0.584,0.604-1.468,1.064-2.693,1.064c-1.22,0-2.089-0.461-2.674-1.064
			c-0.849-0.883-1.062-2.018-1.062-3.541c0-1.506,0.213-2.639,1.062-3.524c0.585-0.603,1.454-1.062,2.674-1.062
			c1.225,0,2.109,0.46,2.693,1.062c0.852,0.886,1.062,2.019,1.062,3.524C104.32,240.045,104.109,241.18,103.258,242.062z
			 M101.895,236.06c-0.337-0.337-0.798-0.513-1.331-0.513c-0.53,0-0.972,0.176-1.308,0.513c-0.55,0.549-0.62,1.487-0.62,2.462
			c0,0.973,0.07,1.914,0.62,2.462c0.336,0.337,0.778,0.532,1.308,0.532c0.533,0,0.994-0.195,1.331-0.532
			c0.547-0.548,0.619-1.489,0.619-2.462C102.514,237.547,102.442,236.608,101.895,236.06z"/>
		<path fill="#515254" d="M111.712,236.148c-0.408-0.406-0.727-0.602-1.347-0.602c-0.974,0-1.789,0.779-1.789,2.019v5.454h-1.806
			v-8.979h1.771v0.974c0.459-0.636,1.382-1.08,2.391-1.08c0.869,0,1.524,0.231,2.143,0.85L111.712,236.148z"/>
		<path fill="#515254" d="M116.989,246.758c-1.362,0-2.23-0.318-3.17-1.188l1.152-1.152c0.566,0.533,1.061,0.797,1.947,0.797
			c1.524,0,2.108-1.079,2.108-2.282v-1.153c-0.654,0.78-1.399,1.029-2.32,1.029c-0.902,0-1.646-0.303-2.143-0.799
			c-0.867-0.868-1.01-2.125-1.01-3.646c0-1.523,0.143-2.783,1.01-3.648c0.498-0.496,1.259-0.78,2.161-0.78
			c0.958,0,1.684,0.249,2.355,1.062v-0.956h1.754v8.926C120.833,245.164,119.381,246.758,116.989,246.758z M117.201,235.547
			c-1.629,0-1.839,1.399-1.839,2.816c0,1.416,0.21,2.816,1.839,2.816c1.63,0,1.824-1.4,1.824-2.816
			C119.025,236.946,118.832,235.547,117.201,235.547z"/>
		<path fill="#515254" d="M128.543,243.02v-0.814c-0.658,0.654-1.275,0.922-2.393,0.922c-1.116,0-1.859-0.268-2.409-0.814
			c-0.459-0.479-0.708-1.171-0.708-1.932c0-1.506,1.046-2.585,3.1-2.585h2.374v-0.638c0-1.135-0.567-1.682-1.965-1.682
			c-0.992,0-1.471,0.229-1.965,0.867l-1.188-1.115c0.85-0.993,1.735-1.294,3.222-1.294c2.462,0,3.704,1.046,3.704,3.081v6.004
			H128.543z M128.507,239.053h-2.106c-1.064,0-1.613,0.479-1.613,1.291c0,0.816,0.512,1.277,1.646,1.277
			c0.69,0,1.205-0.053,1.683-0.514c0.265-0.266,0.39-0.689,0.39-1.328V239.053z"/>
		<path fill="#515254" d="M138.573,243.02v-5.473c0-1.398-0.798-2-1.808-2c-1.011,0-1.859,0.619-1.859,2v5.473h-1.808v-8.979h1.771
			v0.904c0.62-0.674,1.489-1.011,2.391-1.011c0.92,0,1.683,0.301,2.214,0.815c0.69,0.672,0.902,1.522,0.902,2.533v5.736H138.573z"/>
		<path fill="#515254" d="M143.11,232.27v-1.911h1.912v1.911H143.11z M143.162,243.02v-8.979h1.807v8.979H143.162z"/>
		<path fill="#515254" d="M150.746,243.127c-1.468,0-2.709-0.249-3.771-1.293l1.186-1.186c0.726,0.742,1.701,0.938,2.585,0.938
			c1.099,0,1.965-0.39,1.965-1.242c0-0.6-0.334-0.99-1.203-1.061l-1.435-0.124c-1.681-0.142-2.656-0.903-2.656-2.48
			c0-1.753,1.506-2.744,3.384-2.744c1.346,0,2.494,0.284,3.33,1.011l-1.135,1.15c-0.566-0.479-1.363-0.655-2.215-0.655
			c-1.079,0-1.629,0.478-1.629,1.15c0,0.531,0.284,0.938,1.24,1.026l1.418,0.124c1.68,0.144,2.672,0.94,2.672,2.535
			C154.482,242.152,152.889,243.127,150.746,243.127z"/>
		<path fill="#515254" d="M158.014,239.053c0,1.541,0.814,2.516,2.283,2.516c1.011,0,1.541-0.284,2.18-0.92l1.151,1.079
			c-0.923,0.921-1.79,1.399-3.364,1.399c-2.25,0-4.041-1.187-4.041-4.605c0-2.904,1.508-4.587,3.811-4.587
			c2.408,0,3.807,1.771,3.807,4.321v0.797H158.014z M161.805,236.574c-0.286-0.674-0.923-1.134-1.771-1.134
			c-0.852,0-1.508,0.46-1.79,1.134c-0.176,0.406-0.214,0.672-0.229,1.222h4.037C162.035,237.246,161.982,236.98,161.805,236.574z"/>
		<path fill="#515254" d="M171.177,236.148c-0.406-0.406-0.726-0.602-1.346-0.602c-0.974,0-1.788,0.779-1.788,2.019v5.454h-1.807
			v-8.979h1.77v0.974c0.461-0.636,1.385-1.08,2.393-1.08c0.869,0,1.521,0.231,2.143,0.85L171.177,236.148z"/>
		<path fill="#515254" d="M173.963,245.766v-4.799h2.053v3.116L173.963,245.766z"/>
		<path fill="#515254" d="M186.627,243.127c-2.017,0-4.001-1.24-4.001-4.605c0-3.363,1.984-4.587,4.001-4.587
			c1.242,0,2.109,0.355,2.961,1.257l-1.24,1.205c-0.567-0.619-1.011-0.85-1.721-0.85c-0.689,0-1.271,0.282-1.662,0.797
			c-0.391,0.496-0.532,1.133-0.532,2.178c0,1.044,0.142,1.7,0.532,2.197c0.391,0.512,0.973,0.797,1.662,0.797
			c0.71,0,1.153-0.231,1.721-0.851l1.24,1.185C188.736,242.756,187.869,243.127,186.627,243.127z"/>
		<path fill="#515254" d="M191.628,233.793v-3.383h1.79v3.383H191.628z"/>
		<path fill="#515254" d="M197.565,239.053c0,1.541,0.814,2.516,2.282,2.516c1.011,0,1.542-0.284,2.18-0.92l1.15,1.079
			c-0.92,0.921-1.788,1.399-3.363,1.399c-2.249,0-4.039-1.187-4.039-4.605c0-2.904,1.504-4.587,3.807-4.587
			c2.409,0,3.809,1.771,3.809,4.321v0.797H197.565z M201.354,236.574c-0.281-0.674-0.92-1.134-1.771-1.134
			c-0.85,0-1.503,0.46-1.787,1.134c-0.177,0.406-0.213,0.672-0.229,1.222h4.037C201.586,237.246,201.531,236.98,201.354,236.574z"/>
		<path fill="#515254" d="M208.692,243.127c-1.468,0-2.71-0.249-3.771-1.293l1.186-1.186c0.725,0.742,1.699,0.938,2.585,0.938
			c1.097,0,1.965-0.39,1.965-1.242c0-0.6-0.335-0.99-1.203-1.061l-1.435-0.124c-1.685-0.142-2.658-0.903-2.658-2.48
			c0-1.753,1.507-2.744,3.385-2.744c1.344,0,2.496,0.284,3.33,1.011l-1.137,1.15c-0.564-0.479-1.363-0.655-2.215-0.655
			c-1.076,0-1.627,0.478-1.627,1.15c0,0.531,0.285,0.938,1.24,1.026l1.416,0.124c1.684,0.144,2.675,0.94,2.675,2.535
			C212.429,242.152,210.835,243.127,208.692,243.127z"/>
		<path fill="#515254" d="M217.125,243.02c-1.682,0-2.461-1.203-2.461-2.494v-4.945h-1.027v-1.381h1.027v-2.728h1.807v2.728h1.734
			v1.381h-1.734v4.855c0,0.654,0.319,1.043,0.993,1.043h0.741v1.541H217.125z"/>
		<path opacity="0.76" fill="#515254" d="M229.105,237.829v5.19h-1.914v-5.19l-3.773-7.419h2.093l2.639,5.545l2.637-5.545h2.091
			L229.105,237.829z"/>
		<path opacity="0.76" fill="#515254" d="M233.818,243.02v-1.646l5.829-9.245h-5.58v-1.718h7.829v1.559l-5.861,9.334h5.861v1.717
			H233.818z"/>
		<path opacity="0.76" fill="#515254" d="M244.398,243.02V230.41h1.914v12.609H244.398z"/>
		<path fill="#515254" d="M256.164,239.266h-1.418l-0.389-8.855h2.197L256.164,239.266z M254.463,243.02v-1.93h1.984v1.93H254.463z"
			/>
	</g>
</g>
</svg>
