<?xml version="1.0" encoding="utf-8"?>
<!-- Generator: Adobe Illustrator 13.0.0, SVG Export Plug-In . SVG Version: 6.00 Build 14948)  -->
<!DOCTYPE svg PUBLIC "-//W3C//DTD SVG 1.1//EN" "http://www.w3.org/Graphics/SVG/1.1/DTD/svg11.dtd">
<svg version="1.1" id="Calque_1" xmlns="http://www.w3.org/2000/svg" xmlns:xlink="http://www.w3.org/1999/xlink" x="0px" y="0px"
	 width="300px" height="300px" viewBox="0 0 300 300" enable-background="new 0 0 300 300" xml:space="preserve">
<g>
	<g>
		<g>
			<g>
				<polygon fill="#515254" points="103.814,104.778 103.738,104.043 103.071,97.667 46.875,107.091 66.647,196.62 112.111,187.263 
					92.798,103.951 				"/>
				<polygon fill="#515254" points="195.703,109.449 199.5,109.819 195.782,90.601 154.561,97.667 155.321,108.65 155.497,108.663 
					165.869,199.997 210.79,194.117 				"/>
				<polygon opacity="0.76" fill="#515254" points="155.321,108.65 103.814,104.778 112.437,187.196 112.111,187.263 
					115.735,202.903 166.2,202.903 165.869,199.997 161.669,200.546 				"/>
				<polygon fill="#515254" points="103.814,104.778 92.798,103.951 112.111,187.263 112.437,187.196 				"/>
				<polygon opacity="0.76" fill="#515254" points="103.814,104.778 92.798,103.951 112.111,187.263 112.437,187.196 				"/>
				<polygon fill="#515254" points="155.321,108.65 161.669,200.546 165.869,199.997 155.497,108.663 				"/>
				<polygon opacity="0.76" fill="#515254" points="155.321,108.65 161.669,200.546 165.869,199.997 155.497,108.663 				"/>
				<polygon opacity="0.76" fill="#515254" points="210.79,194.117 213.334,208.399 252.125,208.399 243.896,114.161 199.5,109.819 
					215.685,193.478 				"/>
				<polygon fill="#515254" points="210.79,194.117 215.685,193.478 199.5,109.819 195.703,109.449 				"/>
				<polygon opacity="0.76" fill="#515254" points="210.79,194.117 215.685,193.478 199.5,109.819 195.703,109.449 				"/>
			</g>
			<g>
				<g>
					<path fill="#FFFFFF" d="M140.664,150.646c-1.185,1.577-1.62,3.515-1.371,5.359l-9.983,3.692
						c-0.36-0.503-0.779-0.943-1.24-1.333c-0.508-0.407-1.018-0.715-1.553-0.984l1.158-10.911c1.821-0.152,3.53-1.036,4.748-2.597
						c2.332-3.068,1.762-7.57-1.265-10.083c-3.048-2.485-7.418-2.014-9.755,1.032c-2.349,3.072-1.782,7.571,1.267,10.078
						c0.492,0.413,1.024,0.731,1.571,0.97l-1.155,10.921c-1.834,0.13-3.565,1.005-4.777,2.578c-2.35,3.079-1.776,7.585,1.272,10.084
						c3.04,2.487,7.402,2.041,9.752-1.028c1.186-1.571,1.611-3.535,1.357-5.397l9.964-3.677c0.362,0.495,0.773,0.972,1.283,1.377
						c3.028,2.507,7.399,2.041,9.732-1.021c2.348-3.074,1.781-7.575-1.253-10.09C147.375,147.133,143.003,147.592,140.664,150.646
						L140.664,150.646z"/>
				</g>
				<g>
					<path fill-rule="evenodd" clip-rule="evenodd" fill="#FFFFFF" d="M176.879,168.959l0.054-8.792
						c2.735-0.757,5.087-3.728,4.978-8.808c1.725,3.025,4.189,4.33,6.433,4.227l2.58,8.342l-4.936,3.977
						c-0.148,0.121-0.194,0.302-0.101,0.425c0.085,0.143,0.277,0.191,0.475,0.132l13.423-4.192c0.19-0.04,0.321-0.202,0.307-0.369
						c0-0.156-0.141-0.283-0.325-0.296l-6.184-0.449l-2.576-8.404c3.515-2.275,4.833-8.872-2.372-17.542
						c-2.979,0.997-5.946,2.011-8.919,3.009c-0.019,0.881-0.008,1.713,0.029,2.497c-3.092,0.085-6.184,0.154-9.276,0.231
						c-3.557,10.531-0.282,16.194,3.665,17.238l-0.021,8.73l-5.901,2.311c-0.178,0.074-0.271,0.232-0.231,0.393
						c0.054,0.16,0.222,0.27,0.422,0.27h14.061c0.2,0,0.369-0.109,0.411-0.27c0.045-0.16-0.053-0.318-0.223-0.393L176.879,168.959z
						 M180.016,134.253c0.412,0,0.79,0.163,1.06,0.429c0.26,0.271,0.437,0.638,0.437,1.063c0,0.413-0.177,0.777-0.437,1.052
						c-0.27,0.268-0.647,0.427-1.06,0.427c-0.41,0-0.777-0.159-1.051-0.427c-0.273-0.274-0.43-0.639-0.43-1.052
						c0-0.425,0.156-0.792,0.43-1.063C179.238,134.417,179.605,134.253,180.016,134.253L180.016,134.253z M175.076,136.887
						c0.422,0,0.788,0.167,1.06,0.429c0.267,0.273,0.434,0.645,0.434,1.061c0,0.413-0.167,0.783-0.434,1.056
						c-0.271,0.268-0.638,0.427-1.06,0.427c-0.412,0-0.779-0.16-1.051-0.427c-0.271-0.273-0.433-0.643-0.433-1.056
						c0-0.416,0.162-0.787,0.433-1.061C174.297,137.054,174.664,136.887,175.076,136.887L175.076,136.887z M173.731,131.364
						c0.413,0,0.786,0.173,1.056,0.435c0.268,0.265,0.441,0.64,0.441,1.058c0,0.417-0.174,0.779-0.441,1.052
						c-0.27,0.273-0.643,0.432-1.056,0.432c-0.408,0-0.778-0.159-1.048-0.432c-0.271-0.272-0.439-0.635-0.439-1.052
						c0-0.418,0.168-0.793,0.439-1.058C172.953,131.537,173.323,131.364,173.731,131.364L173.731,131.364z"/>
				</g>
				<g>
					<circle fill="#FFFFFF" cx="226.729" cy="151.623" r="13.044"/>
					<g opacity="0.76">
						<line fill="none" stroke="#515254" stroke-width="1.1664" x1="226.449" y1="141.708" x2="225.848" y2="153.195"/>
						<line fill="none" stroke="#515254" stroke-width="1.1664" x1="232.924" y1="152.27" x2="225.49" y2="152.979"/>
					</g>
				</g>
				<g>
					<path fill-rule="evenodd" clip-rule="evenodd" fill="#FFFFFF" d="M85.06,131.362c-7.212,0-13.088,5.856-13.088,13.077
						c0,7.204,12.244,26.874,12.244,26.874c0.469,0.768,1.236,0.768,1.709,0c0,0,12.219-19.65,12.219-26.874
						C98.144,137.218,92.288,131.362,85.06,131.362L85.06,131.362z M85.06,135.22c4.104,0,7.445,3.32,7.445,7.426
						c0,4.112-3.341,7.443-7.445,7.443c-4.106,0-7.431-3.331-7.431-7.443C77.628,138.541,80.953,135.22,85.06,135.22L85.06,135.22z"
						/>
				</g>
			</g>
		</g>
	</g>
</g>
</svg>
