<?xml version="1.0" encoding="utf-8"?>
<!-- Generator: Adobe Illustrator 13.0.0, SVG Export Plug-In . SVG Version: 6.00 Build 14948)  -->
<!DOCTYPE svg PUBLIC "-//W3C//DTD SVG 1.1//EN" "http://www.w3.org/Graphics/SVG/1.1/DTD/svg11.dtd">
<svg version="1.1" id="Calque_1" xmlns="http://www.w3.org/2000/svg" xmlns:xlink="http://www.w3.org/1999/xlink" x="0px" y="0px"
	 width="300px" height="300px" viewBox="0 0 300 300" enable-background="new 0 0 300 300" xml:space="preserve">
<g>
	<g>
		<g>
			<g>
				<polygon fill="#515254" points="103.814,79.309 103.738,78.573 103.071,72.197 46.875,81.621 66.647,171.15 112.111,161.793 
					92.798,78.481 				"/>
				<polygon fill="#515254" points="195.703,83.979 199.5,84.35 195.782,65.131 154.561,72.197 155.321,83.181 155.497,83.193 
					165.869,174.527 210.79,168.647 				"/>
				<polygon opacity="0.76" fill="#515254" points="155.321,83.181 103.814,79.309 112.437,161.727 112.111,161.793 
					115.735,177.434 166.2,177.434 165.869,174.527 161.669,175.076 				"/>
				<polygon fill="#515254" points="103.814,79.309 92.798,78.481 112.111,161.793 112.437,161.727 				"/>
				<polygon opacity="0.76" fill="#515254" points="103.814,79.309 92.798,78.481 112.111,161.793 112.437,161.727 				"/>
				<polygon fill="#515254" points="155.321,83.181 161.669,175.076 165.869,174.527 155.497,83.193 				"/>
				<polygon opacity="0.76" fill="#515254" points="155.321,83.181 161.669,175.076 165.869,174.527 155.497,83.193 				"/>
				<polygon opacity="0.76" fill="#515254" points="210.79,168.647 213.334,182.93 252.125,182.93 243.896,88.691 199.5,84.35 
					215.685,168.008 				"/>
				<polygon fill="#515254" points="210.79,168.647 215.685,168.008 199.5,84.35 195.703,83.979 				"/>
				<polygon opacity="0.76" fill="#515254" points="210.79,168.647 215.685,168.008 199.5,84.35 195.703,83.979 				"/>
			</g>
			<g>
				<g>
					<path fill="#FFFFFF" d="M140.664,125.176c-1.185,1.578-1.62,3.515-1.371,5.36l-9.983,3.692c-0.36-0.503-0.779-0.943-1.24-1.333
						c-0.508-0.407-1.018-0.715-1.553-0.983L127.674,121c1.821-0.152,3.53-1.036,4.748-2.597c2.332-3.068,1.762-7.57-1.265-10.083
						c-3.048-2.485-7.418-2.014-9.755,1.032c-2.349,3.072-1.782,7.571,1.267,10.078c0.492,0.413,1.024,0.731,1.571,0.97
						l-1.155,10.921c-1.834,0.129-3.565,1.004-4.777,2.578c-2.35,3.08-1.776,7.585,1.272,10.084c3.04,2.487,7.402,2.041,9.752-1.028
						c1.186-1.571,1.611-3.535,1.357-5.397l9.964-3.677c0.362,0.495,0.773,0.972,1.283,1.377c3.028,2.506,7.399,2.041,9.732-1.022
						c2.348-3.074,1.781-7.575-1.253-10.09C147.375,121.664,143.003,122.122,140.664,125.176L140.664,125.176z"/>
				</g>
				<g>
					<path fill-rule="evenodd" clip-rule="evenodd" fill="#FFFFFF" d="M176.879,143.489l0.054-8.792
						c2.735-0.757,5.087-3.727,4.978-8.807c1.725,3.025,4.189,4.33,6.433,4.226l2.58,8.343l-4.936,3.976
						c-0.148,0.121-0.194,0.302-0.101,0.425c0.085,0.143,0.277,0.191,0.475,0.131l13.423-4.192c0.19-0.04,0.321-0.203,0.307-0.369
						c0-0.156-0.141-0.283-0.325-0.296l-6.184-0.449l-2.576-8.404c3.515-2.276,4.833-8.873-2.372-17.542
						c-2.979,0.997-5.946,2.011-8.919,3.009c-0.019,0.881-0.008,1.713,0.029,2.497c-3.092,0.085-6.184,0.154-9.276,0.231
						c-3.557,10.532-0.282,16.194,3.665,17.238l-0.021,8.731l-5.901,2.311c-0.178,0.074-0.271,0.232-0.231,0.392
						c0.054,0.161,0.222,0.27,0.422,0.27h14.061c0.2,0,0.369-0.109,0.411-0.27c0.045-0.16-0.053-0.318-0.223-0.392L176.879,143.489z
						 M180.016,108.784c0.412,0,0.79,0.163,1.06,0.429c0.26,0.271,0.437,0.638,0.437,1.063c0,0.413-0.177,0.777-0.437,1.052
						c-0.27,0.268-0.647,0.427-1.06,0.427c-0.41,0-0.777-0.159-1.051-0.427c-0.273-0.274-0.43-0.639-0.43-1.052
						c0-0.425,0.156-0.792,0.43-1.063C179.238,108.947,179.605,108.784,180.016,108.784L180.016,108.784z M175.076,111.417
						c0.422,0,0.788,0.167,1.06,0.429c0.267,0.273,0.434,0.645,0.434,1.061c0,0.413-0.167,0.783-0.434,1.056
						c-0.271,0.268-0.638,0.427-1.06,0.427c-0.412,0-0.779-0.16-1.051-0.427c-0.271-0.273-0.433-0.643-0.433-1.056
						c0-0.416,0.162-0.787,0.433-1.061C174.297,111.584,174.664,111.417,175.076,111.417L175.076,111.417z M173.731,105.894
						c0.413,0,0.786,0.173,1.056,0.435c0.268,0.265,0.441,0.64,0.441,1.058c0,0.417-0.174,0.779-0.441,1.052
						c-0.27,0.273-0.643,0.432-1.056,0.432c-0.408,0-0.778-0.159-1.048-0.432c-0.271-0.272-0.439-0.635-0.439-1.052
						c0-0.418,0.168-0.793,0.439-1.058C172.953,106.067,173.323,105.894,173.731,105.894L173.731,105.894z"/>
				</g>
				<g>
					<circle fill="#FFFFFF" cx="226.729" cy="126.153" r="13.044"/>
					<g opacity="0.76">
						<line fill="none" stroke="#515254" stroke-width="1.1664" x1="226.449" y1="116.238" x2="225.848" y2="127.725"/>
						<line fill="none" stroke="#515254" stroke-width="1.1664" x1="232.924" y1="126.8" x2="225.49" y2="127.509"/>
					</g>
				</g>
				<g>
					<path fill-rule="evenodd" clip-rule="evenodd" fill="#FFFFFF" d="M85.06,105.892c-7.212,0-13.088,5.856-13.088,13.077
						c0,7.204,12.244,26.874,12.244,26.874c0.469,0.768,1.236,0.768,1.709,0c0,0,12.219-19.651,12.219-26.874
						C98.144,111.749,92.288,105.892,85.06,105.892L85.06,105.892z M85.06,109.75c4.104,0,7.445,3.32,7.445,7.426
						c0,4.112-3.341,7.443-7.445,7.443c-4.106,0-7.431-3.331-7.431-7.443C77.628,113.071,80.953,109.75,85.06,109.75L85.06,109.75z"
						/>
				</g>
			</g>
		</g>
	</g>
	<g>
		<path fill="#515254" d="M64.106,218.238v15.631h-5.764v-15.631L46.98,195.885h6.296l7.944,16.699l7.947-16.699h6.3L64.106,218.238
			z"/>
		<path fill="#515254" d="M78.309,233.869v-4.96l17.552-27.85H79.055v-5.175h23.583v4.695l-17.657,28.113h17.657v5.176H78.309z"/>
		<path fill="#515254" d="M110.168,233.869v-37.984h5.764v37.984H110.168z"/>
		<path opacity="0.76" fill="#515254" d="M140.265,218.934h-8.64v14.936h-5.763v-37.984h14.403c7.414,0,12.163,4.908,12.163,11.523
			C152.428,214.025,147.679,218.934,140.265,218.934z M139.945,201.06h-8.32v12.644h8.32c4.004,0,6.722-2.295,6.722-6.295
			S143.949,201.06,139.945,201.06z"/>
		<path opacity="0.76" fill="#515254" d="M159.432,233.869v-37.984h5.764v32.809h18.297v5.176H159.432z"/>
		<path opacity="0.76" fill="#515254" d="M211.885,233.869l-2.614-7.628h-14.989l-2.609,7.628h-6.139l13.925-37.984h4.64
			l13.925,37.984H211.885z M201.914,204.475l-5.926,16.859h11.684L201.914,204.475z"/>
		<path opacity="0.76" fill="#515254" d="M246.738,233.869l-17.549-26.729v26.729h-5.762v-37.984h5.279l17.553,26.676v-26.676h5.76
			v37.984H246.738z"/>
	</g>
</g>
</svg>
