<?xml version="1.0" encoding="utf-8"?>
<!-- Generator: Adobe Illustrator 13.0.0, SVG Export Plug-In . SVG Version: 6.00 Build 14948)  -->
<!DOCTYPE svg PUBLIC "-//W3C//DTD SVG 1.1//EN" "http://www.w3.org/Graphics/SVG/1.1/DTD/svg11.dtd">
<svg version="1.1" id="Calque_1" xmlns="http://www.w3.org/2000/svg" xmlns:xlink="http://www.w3.org/1999/xlink" x="0px" y="0px"
	 width="300px" height="300px" viewBox="0 0 300 300" enable-background="new 0 0 300 300" xml:space="preserve">
<g>
	<g>
		<polygon points="103.814,104.78 103.738,104.044 103.071,97.669 46.875,107.092 66.647,196.62 112.111,187.264 92.798,103.951 		
			"/>
		<polygon points="199.5,109.82 195.783,90.601 154.561,97.669 155.32,108.652 155.498,108.664 165.869,199.997 210.789,194.118 
			195.703,109.451 		"/>
		<polygon opacity="0.76" points="155.32,108.652 103.814,104.78 112.435,187.197 112.111,187.264 115.734,202.903 166.201,202.903 
			165.869,199.997 161.668,200.548 		"/>
		<polygon points="103.814,104.78 92.798,103.951 112.111,187.264 112.435,187.197 		"/>
		<polygon opacity="0.76" points="103.814,104.78 92.798,103.951 112.111,187.264 112.435,187.197 		"/>
		<polygon points="155.32,108.652 161.668,200.548 165.869,199.997 155.498,108.664 		"/>
		<polygon opacity="0.76" points="155.32,108.652 161.668,200.548 165.869,199.997 155.498,108.664 		"/>
		<polygon opacity="0.76" points="243.895,114.161 199.5,109.82 215.684,193.478 210.789,194.118 213.334,208.399 252.125,208.399 
					"/>
		<polygon points="199.5,109.82 195.703,109.451 210.789,194.118 215.684,193.478 		"/>
		<polygon opacity="0.76" points="199.5,109.82 195.703,109.451 210.789,194.118 215.684,193.478 		"/>
	</g>
	<g>
		<g>
			<path fill="#FFFFFF" d="M140.663,150.646c-1.185,1.579-1.619,3.515-1.37,5.36l-9.984,3.693c-0.359-0.504-0.779-0.945-1.238-1.333
				c-0.508-0.408-1.019-0.717-1.555-0.985l1.159-10.909c1.821-0.154,3.53-1.037,4.748-2.598c2.331-3.069,1.762-7.572-1.267-10.085
				c-3.047-2.483-7.418-2.012-9.754,1.034c-2.35,3.071-1.783,7.569,1.268,10.077c0.49,0.411,1.023,0.73,1.57,0.969l-1.155,10.921
				c-1.833,0.129-3.564,1.005-4.776,2.578c-2.35,3.081-1.776,7.585,1.273,10.085c3.039,2.486,7.4,2.04,9.751-1.028
				c1.187-1.571,1.611-3.536,1.356-5.398l9.965-3.678c0.362,0.496,0.773,0.972,1.283,1.378c3.028,2.508,7.398,2.042,9.733-1.021
				c2.346-3.075,1.781-7.576-1.253-10.09C147.375,147.136,143.003,147.593,140.663,150.646L140.663,150.646z"/>
		</g>
		<g>
			<path fill-rule="evenodd" clip-rule="evenodd" fill="#FFFFFF" d="M176.879,168.959l0.053-8.792
				c2.736-0.756,5.088-3.727,4.979-8.807c1.725,3.026,4.189,4.332,6.434,4.226l2.58,8.344l-4.936,3.977
				c-0.15,0.12-0.195,0.301-0.102,0.425c0.084,0.141,0.277,0.191,0.475,0.131l13.422-4.192c0.191-0.039,0.322-0.202,0.309-0.368
				c0-0.156-0.143-0.283-0.326-0.298l-6.184-0.447l-2.576-8.405c3.516-2.276,4.834-8.871-2.371-17.541
				c-2.98,0.997-5.947,2.011-8.92,3.008c-0.018,0.881-0.008,1.713,0.029,2.498c-3.092,0.086-6.184,0.153-9.277,0.23
				c-3.555,10.531-0.281,16.196,3.666,17.238l-0.021,8.729l-5.9,2.313c-0.178,0.073-0.271,0.231-0.232,0.391
				c0.055,0.16,0.221,0.27,0.422,0.27h14.061c0.201,0,0.371-0.109,0.41-0.27c0.047-0.159-0.051-0.317-0.221-0.391L176.879,168.959z
				 M180.016,134.255c0.412,0,0.791,0.162,1.059,0.427c0.262,0.273,0.438,0.641,0.438,1.066c0,0.413-0.176,0.775-0.438,1.052
				c-0.268,0.268-0.646,0.427-1.059,0.427c-0.41,0-0.779-0.159-1.051-0.427c-0.273-0.276-0.43-0.639-0.43-1.052
				c0-0.426,0.156-0.793,0.43-1.066C179.236,134.417,179.605,134.255,180.016,134.255L180.016,134.255z M175.076,136.888
				c0.42,0,0.789,0.167,1.059,0.43c0.268,0.274,0.434,0.645,0.434,1.062c0,0.412-0.166,0.782-0.434,1.056
				c-0.27,0.269-0.639,0.428-1.059,0.428c-0.412,0-0.779-0.159-1.051-0.428c-0.271-0.273-0.434-0.644-0.434-1.056
				c0-0.417,0.162-0.787,0.434-1.062C174.297,137.055,174.664,136.888,175.076,136.888L175.076,136.888z M173.732,131.365
				c0.412,0,0.785,0.173,1.055,0.436c0.268,0.265,0.441,0.64,0.441,1.058c0,0.417-0.174,0.778-0.441,1.052
				c-0.27,0.272-0.643,0.432-1.055,0.432c-0.408,0-0.779-0.159-1.049-0.432c-0.271-0.273-0.439-0.635-0.439-1.052
				c0-0.418,0.168-0.793,0.439-1.058C172.953,131.538,173.324,131.365,173.732,131.365L173.732,131.365z"/>
		</g>
		<g>
			<path fill="#FFFFFF" d="M239.773,151.624c0,7.206-5.842,13.045-13.043,13.045c-7.205,0-13.045-5.839-13.045-13.045
				c0-7.202,5.84-13.042,13.045-13.042C233.932,138.582,239.773,144.422,239.773,151.624z"/>
			<g opacity="0.76">
				<line fill="none" stroke="#515254" stroke-width="1.1664" x1="226.449" y1="141.709" x2="225.848" y2="153.195"/>
				<line fill="none" stroke="#515254" stroke-width="1.1664" x1="232.924" y1="152.271" x2="225.49" y2="152.979"/>
			</g>
		</g>
		<g>
			<path fill-rule="evenodd" clip-rule="evenodd" fill="#FFFFFF" d="M85.06,131.363c-7.213,0-13.088,5.857-13.088,13.077
				c0,7.202,12.243,26.872,12.243,26.872c0.47,0.77,1.236,0.77,1.711,0c0,0,12.219-19.649,12.219-26.872
				C98.144,137.221,92.289,131.363,85.06,131.363L85.06,131.363z M85.06,135.223c4.104,0,7.444,3.319,7.444,7.426
				c0,4.112-3.341,7.442-7.444,7.442c-4.107,0-7.432-3.33-7.432-7.442C77.628,138.542,80.953,135.223,85.06,135.223L85.06,135.223z"
				/>
		</g>
	</g>
</g>
</svg>
