<?xml version="1.0" encoding="utf-8"?>
<!-- Generator: Adobe Illustrator 13.0.0, SVG Export Plug-In . SVG Version: 6.00 Build 14948)  -->
<!DOCTYPE svg PUBLIC "-//W3C//DTD SVG 1.1//EN" "http://www.w3.org/Graphics/SVG/1.1/DTD/svg11.dtd">
<svg version="1.1" id="Calque_1" xmlns="http://www.w3.org/2000/svg" xmlns:xlink="http://www.w3.org/1999/xlink" x="0px" y="0px"
	 width="300px" height="300px" viewBox="0 0 300 300" enable-background="new 0 0 300 300" xml:space="preserve">
<g>
	<g>
		<polygon points="103.814,66.421 103.738,65.685 103.071,59.31 46.875,68.733 66.647,158.262 112.111,148.905 92.798,65.592 		"/>
		<polygon points="199.5,71.461 195.783,52.242 154.561,59.31 155.32,70.293 155.498,70.305 165.869,161.639 210.789,155.76 
			195.703,71.092 		"/>
		<polygon opacity="0.76" points="155.32,70.293 103.814,66.421 112.435,148.838 112.111,148.905 115.734,164.545 166.201,164.545 
			165.869,161.639 161.668,162.189 		"/>
		<polygon points="103.814,66.421 92.798,65.592 112.111,148.905 112.435,148.838 		"/>
		<polygon opacity="0.76" points="103.814,66.421 92.798,65.592 112.111,148.905 112.435,148.838 		"/>
		<polygon points="155.32,70.293 161.668,162.189 165.869,161.639 155.498,70.305 		"/>
		<polygon opacity="0.76" points="155.32,70.293 161.668,162.189 165.869,161.639 155.498,70.305 		"/>
		<polygon opacity="0.76" points="243.895,75.802 199.5,71.461 215.684,155.119 210.789,155.76 213.334,170.041 252.125,170.041 		
			"/>
		<polygon points="199.5,71.461 195.703,71.092 210.789,155.76 215.684,155.119 		"/>
		<polygon opacity="0.76" points="199.5,71.461 195.703,71.092 210.789,155.76 215.684,155.119 		"/>
	</g>
	<g>
		<g>
			<path fill="#FFFFFF" d="M140.663,112.288c-1.185,1.579-1.619,3.515-1.37,5.36l-9.984,3.693c-0.359-0.504-0.779-0.945-1.238-1.333
				c-0.508-0.408-1.019-0.717-1.555-0.985l1.159-10.909c1.821-0.154,3.53-1.037,4.748-2.598c2.331-3.069,1.762-7.572-1.267-10.085
				c-3.047-2.483-7.418-2.012-9.754,1.034c-2.35,3.071-1.783,7.569,1.268,10.077c0.49,0.411,1.023,0.73,1.57,0.969l-1.155,10.921
				c-1.833,0.129-3.564,1.005-4.776,2.578c-2.35,3.081-1.776,7.585,1.273,10.085c3.039,2.486,7.4,2.04,9.751-1.028
				c1.187-1.571,1.611-3.536,1.356-5.398l9.965-3.678c0.362,0.496,0.773,0.972,1.283,1.378c3.028,2.508,7.398,2.042,9.733-1.021
				c2.346-3.075,1.781-7.576-1.253-10.09C147.375,108.777,143.003,109.234,140.663,112.288L140.663,112.288z"/>
		</g>
		<g>
			<path fill-rule="evenodd" clip-rule="evenodd" fill="#FFFFFF" d="M176.879,130.6l0.053-8.792
				c2.736-0.756,5.088-3.727,4.979-8.807c1.725,3.026,4.189,4.332,6.434,4.226l2.58,8.344l-4.936,3.977
				c-0.15,0.12-0.195,0.301-0.102,0.425c0.084,0.141,0.277,0.191,0.475,0.131l13.422-4.192c0.191-0.039,0.322-0.202,0.309-0.368
				c0-0.156-0.143-0.283-0.326-0.298l-6.184-0.447l-2.576-8.405c3.516-2.276,4.834-8.871-2.371-17.541
				c-2.98,0.997-5.947,2.011-8.92,3.008c-0.018,0.881-0.008,1.713,0.029,2.498c-3.092,0.086-6.184,0.153-9.277,0.23
				c-3.555,10.531-0.281,16.196,3.666,17.238l-0.021,8.729l-5.9,2.313c-0.178,0.073-0.271,0.231-0.232,0.391
				c0.055,0.16,0.221,0.27,0.422,0.27h14.061c0.201,0,0.371-0.109,0.41-0.27c0.047-0.159-0.051-0.317-0.221-0.391L176.879,130.6z
				 M180.016,95.896c0.412,0,0.791,0.162,1.059,0.427c0.262,0.273,0.438,0.641,0.438,1.066c0,0.413-0.176,0.775-0.438,1.052
				c-0.268,0.268-0.646,0.427-1.059,0.427c-0.41,0-0.779-0.159-1.051-0.427c-0.273-0.276-0.43-0.639-0.43-1.052
				c0-0.426,0.156-0.793,0.43-1.066C179.236,96.058,179.605,95.896,180.016,95.896L180.016,95.896z M175.076,98.529
				c0.42,0,0.789,0.167,1.059,0.43c0.268,0.274,0.434,0.645,0.434,1.062c0,0.412-0.166,0.782-0.434,1.056
				c-0.27,0.269-0.639,0.428-1.059,0.428c-0.412,0-0.779-0.159-1.051-0.428c-0.271-0.273-0.434-0.644-0.434-1.056
				c0-0.417,0.162-0.787,0.434-1.062C174.297,98.696,174.664,98.529,175.076,98.529L175.076,98.529z M173.732,93.006
				c0.412,0,0.785,0.173,1.055,0.436c0.268,0.265,0.441,0.64,0.441,1.058c0,0.417-0.174,0.778-0.441,1.052
				c-0.27,0.272-0.643,0.432-1.055,0.432c-0.408,0-0.779-0.159-1.049-0.432c-0.271-0.273-0.439-0.635-0.439-1.052
				c0-0.418,0.168-0.793,0.439-1.058C172.953,93.179,173.324,93.006,173.732,93.006L173.732,93.006z"/>
		</g>
		<g>
			<path fill="#FFFFFF" d="M239.773,113.265c0,7.206-5.842,13.045-13.043,13.045c-7.205,0-13.045-5.839-13.045-13.045
				c0-7.202,5.84-13.042,13.045-13.042C233.932,100.223,239.773,106.063,239.773,113.265z"/>
			<g opacity="0.76">
				<line fill="none" stroke="#515254" stroke-width="1.1664" x1="226.449" y1="103.35" x2="225.848" y2="114.836"/>
				<line fill="none" stroke="#515254" stroke-width="1.1664" x1="232.924" y1="113.912" x2="225.49" y2="114.62"/>
			</g>
		</g>
		<g>
			<path fill-rule="evenodd" clip-rule="evenodd" fill="#FFFFFF" d="M85.06,93.004c-7.213,0-13.088,5.857-13.088,13.077
				c0,7.202,12.243,26.872,12.243,26.872c0.47,0.77,1.236,0.77,1.711,0c0,0,12.219-19.649,12.219-26.872
				C98.144,98.862,92.289,93.004,85.06,93.004L85.06,93.004z M85.06,96.864c4.104,0,7.444,3.319,7.444,7.426
				c0,4.112-3.341,7.442-7.444,7.442c-4.107,0-7.432-3.33-7.432-7.442C77.628,100.183,80.953,96.864,85.06,96.864L85.06,96.864z"/>
		</g>
	</g>
	<path fill="#231F20" d="M64.105,205.352v15.631h-5.763v-15.631l-11.363-22.355h6.297l7.945,16.699l7.947-16.699h6.3L64.105,205.352
		z"/>
	<path fill="#231F20" d="M78.308,220.982v-4.961l17.553-27.85H79.054v-5.176h23.583v4.697l-17.656,28.113h17.656v5.176H78.308z"/>
	<path fill="#231F20" d="M110.168,220.982v-37.986h5.763v37.986H110.168z"/>
	<path opacity="0.76" fill="#231F20" d="M140.265,206.045h-8.641v14.938h-5.764v-37.986h14.404c7.414,0,12.163,4.908,12.163,11.525
		C152.428,201.137,147.679,206.045,140.265,206.045z M139.945,188.172h-8.32v12.643h8.32c4.005,0,6.721-2.293,6.721-6.293
		C146.666,190.52,143.95,188.172,139.945,188.172z"/>
	<path opacity="0.76" fill="#231F20" d="M159.432,220.982v-37.986h5.764v32.811h18.297v5.176H159.432z"/>
	<path opacity="0.76" fill="#231F20" d="M211.885,220.982l-2.613-7.631h-14.99l-2.611,7.631h-6.137l13.924-37.986h4.641
		l13.924,37.986H211.885z M201.914,191.586l-5.926,16.861h11.684L201.914,191.586z"/>
	<path opacity="0.76" fill="#231F20" d="M246.738,220.982l-17.549-26.73v26.73h-5.764v-37.986h5.279l17.555,26.676v-26.676h5.76
		v37.986H246.738z"/>
	<g>
		<path fill="#231F20" d="M48.785,242.332c-0.494,0.494-1.275,0.795-2.177,0.795c-0.957,0-1.702-0.248-2.356-1.027v4.551h-1.806
			v-12.607h1.771V235c0.673-0.816,1.399-1.066,2.374-1.066c0.903,0,1.701,0.305,2.195,0.799c0.903,0.904,1.008,2.428,1.008,3.789
			C49.793,239.887,49.688,241.428,48.785,242.332z M46.128,235.547c-1.63,0-1.876,1.383-1.876,2.975
			c0,1.596,0.246,2.994,1.876,2.994c1.63,0,1.86-1.398,1.86-2.994C47.988,236.93,47.758,235.547,46.128,235.547z"/>
		<path fill="#231F20" d="M58.249,242.064c-0.585,0.602-1.471,1.062-2.693,1.062c-1.22,0-2.09-0.461-2.673-1.062
			c-0.851-0.885-1.063-2.02-1.063-3.543c0-1.504,0.213-2.639,1.063-3.521c0.583-0.604,1.453-1.066,2.673-1.066
			c1.223,0,2.108,0.463,2.693,1.066c0.851,0.883,1.062,2.018,1.062,3.521C59.311,240.045,59.099,241.18,58.249,242.064z
			 M56.884,236.061c-0.334-0.336-0.796-0.514-1.329-0.514c-0.53,0-0.973,0.178-1.308,0.514c-0.551,0.551-0.623,1.488-0.623,2.461
			c0,0.975,0.072,1.914,0.623,2.461c0.334,0.338,0.777,0.533,1.308,0.533c0.533,0,0.995-0.195,1.329-0.533
			c0.548-0.547,0.62-1.486,0.62-2.461C57.504,237.549,57.433,236.611,56.884,236.061z"/>
		<path fill="#231F20" d="M67.181,243.02v-0.902c-0.62,0.676-1.489,1.01-2.392,1.01c-0.922,0-1.683-0.301-2.213-0.814
			c-0.692-0.672-0.905-1.523-0.905-2.531v-5.738h1.808v5.471c0,1.4,0.797,2.002,1.807,2.002c1.011,0,1.859-0.621,1.859-2.002v-5.471
			h1.808v8.977H67.181z"/>
		<path fill="#231F20" d="M76.766,236.15c-0.406-0.406-0.726-0.604-1.345-0.604c-0.975,0-1.789,0.779-1.789,2.021v5.451h-1.806
			v-8.977h1.77v0.971c0.46-0.635,1.383-1.08,2.391-1.08c0.87,0,1.523,0.232,2.143,0.85L76.766,236.15z"/>
		<path fill="#231F20" d="M86.763,243.127c-1.471,0-2.709-0.248-3.773-1.291l1.187-1.188c0.726,0.742,1.701,0.939,2.587,0.939
			c1.097,0,1.967-0.391,1.967-1.244c0-0.6-0.338-0.988-1.206-1.057l-1.435-0.127c-1.682-0.143-2.656-0.902-2.656-2.479
			c0-1.756,1.506-2.748,3.384-2.748c1.345,0,2.495,0.285,3.329,1.014l-1.133,1.15c-0.568-0.479-1.364-0.656-2.216-0.656
			c-1.081,0-1.628,0.48-1.628,1.15c0,0.531,0.281,0.938,1.237,1.027l1.419,0.121c1.682,0.146,2.674,0.941,2.674,2.535
			C90.5,242.154,88.907,243.127,86.763,243.127z"/>
		<path fill="#231F20" d="M92.648,233.795v-3.385h1.787v3.385H92.648z"/>
		<path fill="#231F20" d="M103.257,242.064c-0.584,0.602-1.467,1.062-2.693,1.062c-1.221,0-2.089-0.461-2.673-1.062
			c-0.851-0.885-1.063-2.02-1.063-3.543c0-1.504,0.213-2.639,1.063-3.521c0.584-0.604,1.452-1.066,2.673-1.066
			c1.227,0,2.109,0.463,2.693,1.066c0.852,0.883,1.062,2.018,1.062,3.521C104.32,240.045,104.109,241.18,103.257,242.064z
			 M101.894,236.061c-0.336-0.336-0.797-0.514-1.33-0.514c-0.529,0-0.972,0.178-1.308,0.514c-0.55,0.551-0.62,1.488-0.62,2.461
			c0,0.975,0.07,1.914,0.62,2.461c0.336,0.338,0.778,0.533,1.308,0.533c0.533,0,0.994-0.195,1.33-0.533
			c0.549-0.547,0.619-1.486,0.619-2.461C102.513,237.549,102.443,236.611,101.894,236.061z"/>
		<path fill="#231F20" d="M111.712,236.15c-0.408-0.406-0.728-0.604-1.348-0.604c-0.973,0-1.788,0.779-1.788,2.021v5.451h-1.806
			v-8.977h1.771v0.971c0.459-0.635,1.381-1.08,2.391-1.08c0.867,0,1.523,0.232,2.143,0.85L111.712,236.15z"/>
		<path fill="#231F20" d="M116.99,246.758c-1.363,0-2.232-0.318-3.172-1.188l1.152-1.152c0.566,0.533,1.061,0.799,1.947,0.799
			c1.523,0,2.108-1.08,2.108-2.285v-1.15c-0.655,0.777-1.399,1.027-2.321,1.027c-0.902,0-1.646-0.301-2.143-0.797
			c-0.867-0.869-1.01-2.125-1.01-3.648s0.143-2.781,1.01-3.648c0.496-0.496,1.258-0.781,2.16-0.781c0.959,0,1.685,0.25,2.355,1.066
			v-0.957h1.755v8.926C120.833,245.164,119.38,246.758,116.99,246.758z M117.202,235.547c-1.629,0-1.84,1.398-1.84,2.816
			s0.211,2.816,1.84,2.816c1.63,0,1.824-1.398,1.824-2.816S118.832,235.547,117.202,235.547z"/>
		<path fill="#231F20" d="M128.542,243.02v-0.812c-0.656,0.654-1.275,0.92-2.393,0.92c-1.116,0-1.859-0.266-2.408-0.814
			c-0.461-0.477-0.709-1.17-0.709-1.93c0-1.506,1.045-2.588,3.101-2.588h2.372v-0.635c0-1.135-0.566-1.684-1.965-1.684
			c-0.991,0-1.471,0.23-1.965,0.869l-1.188-1.117c0.85-0.99,1.734-1.295,3.223-1.295c2.461,0,3.702,1.047,3.702,3.084v6.002H128.542
			z M128.505,239.055h-2.104c-1.064,0-1.614,0.479-1.614,1.289c0,0.816,0.513,1.279,1.646,1.279c0.689,0,1.205-0.053,1.684-0.514
			c0.266-0.266,0.389-0.689,0.389-1.328V239.055z"/>
		<path fill="#231F20" d="M138.573,243.02v-5.471c0-1.398-0.798-2.002-1.808-2.002c-1.011,0-1.859,0.621-1.859,2.002v5.471h-1.807
			v-8.977h1.771v0.904c0.619-0.676,1.488-1.014,2.391-1.014c0.92,0,1.684,0.305,2.215,0.816c0.689,0.672,0.9,1.525,0.9,2.533v5.736
			H138.573z"/>
		<path fill="#231F20" d="M143.11,232.271v-1.914h1.913v1.914H143.11z M143.162,243.02v-8.977h1.807v8.977H143.162z"/>
		<path fill="#231F20" d="M150.746,243.127c-1.468,0-2.709-0.248-3.772-1.291l1.186-1.188c0.727,0.742,1.702,0.939,2.586,0.939
			c1.098,0,1.965-0.391,1.965-1.244c0-0.6-0.334-0.988-1.203-1.057l-1.435-0.127c-1.681-0.143-2.656-0.902-2.656-2.479
			c0-1.756,1.506-2.748,3.384-2.748c1.346,0,2.494,0.285,3.33,1.014l-1.135,1.15c-0.566-0.479-1.363-0.656-2.215-0.656
			c-1.081,0-1.629,0.48-1.629,1.15c0,0.531,0.283,0.938,1.24,1.027l1.418,0.121c1.68,0.146,2.672,0.941,2.672,2.535
			C154.482,242.154,152.889,243.127,150.746,243.127z"/>
		<path fill="#231F20" d="M158.014,239.055c0,1.539,0.814,2.516,2.283,2.516c1.012,0,1.541-0.285,2.18-0.922l1.15,1.08
			c-0.922,0.922-1.789,1.398-3.363,1.398c-2.25,0-4.041-1.184-4.041-4.605c0-2.902,1.508-4.588,3.811-4.588
			c2.408,0,3.807,1.773,3.807,4.324v0.797H158.014z M161.805,236.574c-0.285-0.674-0.924-1.133-1.771-1.133
			c-0.852,0-1.508,0.459-1.789,1.133c-0.178,0.41-0.215,0.676-0.23,1.221h4.037C162.035,237.25,161.982,236.984,161.805,236.574z"/>
		<path fill="#231F20" d="M171.176,236.15c-0.406-0.406-0.725-0.604-1.344-0.604c-0.975,0-1.789,0.779-1.789,2.021v5.451h-1.807
			v-8.977h1.77v0.971c0.461-0.635,1.385-1.08,2.393-1.08c0.869,0,1.521,0.232,2.143,0.85L171.176,236.15z"/>
		<path fill="#231F20" d="M173.963,245.768v-4.801h2.053v3.117L173.963,245.768z"/>
		<path fill="#231F20" d="M186.627,243.127c-2.018,0-4.002-1.238-4.002-4.605c0-3.363,1.984-4.588,4.002-4.588
			c1.242,0,2.109,0.357,2.959,1.26l-1.238,1.203c-0.568-0.619-1.01-0.85-1.721-0.85c-0.689,0-1.271,0.285-1.662,0.799
			c-0.391,0.494-0.533,1.131-0.533,2.176s0.143,1.701,0.533,2.197c0.391,0.512,0.973,0.797,1.662,0.797
			c0.711,0,1.152-0.23,1.721-0.85l1.238,1.186C188.736,242.756,187.869,243.127,186.627,243.127z"/>
		<path fill="#231F20" d="M191.627,233.795v-3.385h1.791v3.385H191.627z"/>
		<path fill="#231F20" d="M197.566,239.055c0,1.539,0.812,2.516,2.283,2.516c1.008,0,1.539-0.285,2.178-0.922l1.15,1.08
			c-0.92,0.922-1.789,1.398-3.363,1.398c-2.248,0-4.039-1.184-4.039-4.605c0-2.902,1.504-4.588,3.809-4.588
			c2.406,0,3.807,1.773,3.807,4.324v0.797H197.566z M201.354,236.574c-0.281-0.674-0.92-1.133-1.77-1.133
			c-0.852,0-1.506,0.459-1.789,1.133c-0.178,0.41-0.213,0.676-0.229,1.221h4.035C201.586,237.25,201.531,236.984,201.354,236.574z"
			/>
		<path fill="#231F20" d="M208.693,243.127c-1.469,0-2.711-0.248-3.771-1.291l1.186-1.188c0.725,0.742,1.699,0.939,2.586,0.939
			c1.098,0,1.963-0.391,1.963-1.244c0-0.6-0.334-0.988-1.203-1.057l-1.434-0.127c-1.684-0.143-2.658-0.902-2.658-2.479
			c0-1.756,1.508-2.748,3.385-2.748c1.344,0,2.496,0.285,3.33,1.014l-1.137,1.15c-0.564-0.479-1.363-0.656-2.215-0.656
			c-1.078,0-1.627,0.48-1.627,1.15c0,0.531,0.285,0.938,1.24,1.027l1.416,0.121c1.684,0.146,2.674,0.941,2.674,2.535
			C212.428,242.154,210.834,243.127,208.693,243.127z"/>
		<path fill="#231F20" d="M217.125,243.02c-1.682,0-2.461-1.201-2.461-2.492v-4.945h-1.027v-1.381h1.027v-2.729h1.807v2.729h1.734
			v1.381h-1.734v4.854c0,0.656,0.318,1.045,0.994,1.045h0.74v1.539H217.125z"/>
		<path fill="#231F20" d="M229.105,237.832v5.188h-1.914v-5.188l-3.773-7.422h2.092l2.639,5.545l2.637-5.545h2.09L229.105,237.832z"
			/>
		<path fill="#231F20" d="M233.818,243.02v-1.645l5.828-9.248h-5.58v-1.717h7.83v1.559l-5.861,9.334h5.861v1.717H233.818z"/>
		<path fill="#231F20" d="M244.398,243.02V230.41h1.914v12.609H244.398z"/>
		<path fill="#231F20" d="M256.164,239.266h-1.418l-0.389-8.855h2.197L256.164,239.266z M254.465,243.02v-1.928h1.982v1.928H254.465
			z"/>
	</g>
</g>
</svg>
