<?xml version="1.0" encoding="utf-8"?>
<!-- Generator: Adobe Illustrator 13.0.0, SVG Export Plug-In . SVG Version: 6.00 Build 14948)  -->
<!DOCTYPE svg PUBLIC "-//W3C//DTD SVG 1.1//EN" "http://www.w3.org/Graphics/SVG/1.1/DTD/svg11.dtd">
<svg version="1.1" id="Calque_1" xmlns="http://www.w3.org/2000/svg" xmlns:xlink="http://www.w3.org/1999/xlink" x="0px" y="0px"
	 width="300px" height="300px" viewBox="0 0 300 300" enable-background="new 0 0 300 300" xml:space="preserve">
<g>
	<g>
		<polygon points="103.814,79.31 103.738,78.573 103.071,72.198 46.875,81.621 66.647,171.149 112.111,161.793 92.798,78.48 		"/>
		<polygon points="199.5,84.35 195.783,65.13 154.561,72.198 155.32,83.182 155.498,83.193 165.869,174.526 210.789,168.647 
			195.703,83.98 		"/>
		<polygon opacity="0.76" points="155.32,83.182 103.814,79.31 112.435,161.727 112.111,161.793 115.734,177.433 166.201,177.433 
			165.869,174.526 161.668,175.077 		"/>
		<polygon points="103.814,79.31 92.798,78.48 112.111,161.793 112.435,161.727 		"/>
		<polygon opacity="0.76" points="103.814,79.31 92.798,78.48 112.111,161.793 112.435,161.727 		"/>
		<polygon points="155.32,83.182 161.668,175.077 165.869,174.526 155.498,83.193 		"/>
		<polygon opacity="0.76" points="155.32,83.182 161.668,175.077 165.869,174.526 155.498,83.193 		"/>
		<polygon opacity="0.76" points="243.895,88.69 199.5,84.35 215.684,168.007 210.789,168.647 213.334,182.929 252.125,182.929 		
			"/>
		<polygon points="199.5,84.35 195.703,83.98 210.789,168.647 215.684,168.007 		"/>
		<polygon opacity="0.76" points="199.5,84.35 195.703,83.98 210.789,168.647 215.684,168.007 		"/>
	</g>
	<g>
		<g>
			<path fill="#FFFFFF" d="M140.663,125.176c-1.185,1.579-1.619,3.515-1.37,5.36l-9.984,3.693c-0.359-0.504-0.779-0.945-1.238-1.333
				c-0.508-0.408-1.019-0.717-1.555-0.985l1.159-10.909c1.821-0.154,3.53-1.037,4.748-2.598c2.331-3.069,1.762-7.572-1.267-10.085
				c-3.047-2.483-7.418-2.012-9.754,1.034c-2.35,3.071-1.783,7.569,1.268,10.077c0.49,0.411,1.023,0.73,1.57,0.969l-1.155,10.921
				c-1.833,0.129-3.564,1.005-4.776,2.578c-2.35,3.081-1.776,7.585,1.273,10.085c3.039,2.486,7.4,2.04,9.751-1.028
				c1.187-1.571,1.611-3.536,1.356-5.398l9.965-3.678c0.362,0.496,0.773,0.972,1.283,1.378c3.028,2.508,7.398,2.042,9.733-1.021
				c2.346-3.075,1.781-7.576-1.253-10.09C147.375,121.665,143.003,122.122,140.663,125.176L140.663,125.176z"/>
		</g>
		<g>
			<path fill-rule="evenodd" clip-rule="evenodd" fill="#FFFFFF" d="M176.879,143.488l0.053-8.792
				c2.736-0.756,5.088-3.727,4.979-8.807c1.725,3.026,4.189,4.332,6.434,4.226l2.58,8.344l-4.936,3.977
				c-0.15,0.12-0.195,0.301-0.102,0.425c0.084,0.141,0.277,0.191,0.475,0.131l13.422-4.192c0.191-0.039,0.322-0.202,0.309-0.368
				c0-0.156-0.143-0.283-0.326-0.298l-6.184-0.447l-2.576-8.405c3.516-2.276,4.834-8.871-2.371-17.541
				c-2.98,0.997-5.947,2.011-8.92,3.008c-0.018,0.881-0.008,1.713,0.029,2.498c-3.092,0.086-6.184,0.153-9.277,0.23
				c-3.555,10.531-0.281,16.196,3.666,17.238l-0.021,8.729l-5.9,2.313c-0.178,0.073-0.271,0.231-0.232,0.391
				c0.055,0.16,0.221,0.27,0.422,0.27h14.061c0.201,0,0.371-0.109,0.41-0.27c0.047-0.159-0.051-0.317-0.221-0.391L176.879,143.488z
				 M180.016,108.784c0.412,0,0.791,0.162,1.059,0.427c0.262,0.273,0.438,0.641,0.438,1.066c0,0.413-0.176,0.775-0.438,1.052
				c-0.268,0.268-0.646,0.427-1.059,0.427c-0.41,0-0.779-0.159-1.051-0.427c-0.273-0.276-0.43-0.639-0.43-1.052
				c0-0.426,0.156-0.793,0.43-1.066C179.236,108.946,179.605,108.784,180.016,108.784L180.016,108.784z M175.076,111.417
				c0.42,0,0.789,0.167,1.059,0.43c0.268,0.274,0.434,0.645,0.434,1.062c0,0.412-0.166,0.782-0.434,1.056
				c-0.27,0.269-0.639,0.428-1.059,0.428c-0.412,0-0.779-0.159-1.051-0.428c-0.271-0.273-0.434-0.644-0.434-1.056
				c0-0.417,0.162-0.787,0.434-1.062C174.297,111.584,174.664,111.417,175.076,111.417L175.076,111.417z M173.732,105.895
				c0.412,0,0.785,0.173,1.055,0.436c0.268,0.265,0.441,0.64,0.441,1.058c0,0.417-0.174,0.778-0.441,1.052
				c-0.27,0.272-0.643,0.432-1.055,0.432c-0.408,0-0.779-0.159-1.049-0.432c-0.271-0.273-0.439-0.635-0.439-1.052
				c0-0.418,0.168-0.793,0.439-1.058C172.953,106.067,173.324,105.895,173.732,105.895L173.732,105.895z"/>
		</g>
		<g>
			<path fill="#FFFFFF" d="M239.773,126.153c0,7.206-5.842,13.045-13.043,13.045c-7.205,0-13.045-5.839-13.045-13.045
				c0-7.202,5.84-13.042,13.045-13.042C233.932,113.111,239.773,118.951,239.773,126.153z"/>
			<g opacity="0.76">
				<line fill="none" stroke="#515254" stroke-width="1.1664" x1="226.449" y1="116.238" x2="225.848" y2="127.725"/>
				<line fill="none" stroke="#515254" stroke-width="1.1664" x1="232.924" y1="126.8" x2="225.49" y2="127.508"/>
			</g>
		</g>
		<g>
			<path fill-rule="evenodd" clip-rule="evenodd" fill="#FFFFFF" d="M85.06,105.893c-7.213,0-13.088,5.857-13.088,13.077
				c0,7.202,12.243,26.872,12.243,26.872c0.47,0.77,1.236,0.77,1.711,0c0,0,12.219-19.649,12.219-26.872
				C98.144,111.75,92.289,105.893,85.06,105.893L85.06,105.893z M85.06,109.752c4.104,0,7.444,3.319,7.444,7.426
				c0,4.112-3.341,7.442-7.444,7.442c-4.107,0-7.432-3.33-7.432-7.442C77.628,113.071,80.953,109.752,85.06,109.752L85.06,109.752z"
				/>
		</g>
	</g>
	<path fill="#231F20" d="M64.105,218.239v15.631h-5.763v-15.631l-11.363-22.355h6.297l7.945,16.699l7.947-16.699h6.3L64.105,218.239
		z"/>
	<path fill="#231F20" d="M78.308,233.87v-4.961l17.553-27.85H79.054v-5.176h23.583v4.697l-17.656,28.113h17.656v5.176H78.308z"/>
	<path fill="#231F20" d="M110.168,233.87v-37.986h5.763v37.986H110.168z"/>
	<path opacity="0.76" fill="#231F20" d="M140.265,218.933h-8.641v14.938h-5.764v-37.986h14.404c7.414,0,12.163,4.908,12.163,11.525
		C152.428,214.024,147.679,218.933,140.265,218.933z M139.945,201.06h-8.32v12.643h8.32c4.005,0,6.721-2.293,6.721-6.293
		C146.666,203.407,143.95,201.06,139.945,201.06z"/>
	<path opacity="0.76" fill="#231F20" d="M159.432,233.87v-37.986h5.764v32.811h18.297v5.176H159.432z"/>
	<path opacity="0.76" fill="#231F20" d="M211.885,233.87l-2.613-7.631h-14.99l-2.611,7.631h-6.137l13.924-37.986h4.641
		l13.924,37.986H211.885z M201.914,204.474l-5.926,16.861h11.684L201.914,204.474z"/>
	<path opacity="0.76" fill="#231F20" d="M246.738,233.87l-17.549-26.73v26.73h-5.764v-37.986h5.279l17.555,26.676v-26.676h5.76
		v37.986H246.738z"/>
</g>
</svg>
