<?xml version="1.0" encoding="utf-8"?>
<!-- Generator: Adobe Illustrator 13.0.0, SVG Export Plug-In . SVG Version: 6.00 Build 14948)  -->
<!DOCTYPE svg PUBLIC "-//W3C//DTD SVG 1.1//EN" "http://www.w3.org/Graphics/SVG/1.1/DTD/svg11.dtd">
<svg version="1.1" id="Calque_1" xmlns="http://www.w3.org/2000/svg" xmlns:xlink="http://www.w3.org/1999/xlink" x="0px" y="0px"
	 width="300px" height="300px" viewBox="0 0 300 300" enable-background="new 0 0 300 300" xml:space="preserve">
<g>
	<g>
		<path fill="#231F20" d="M64.106,218.383v15.631h-5.764v-15.631l-11.363-22.352h6.296l7.946,16.697l7.946-16.697h6.3
			L64.106,218.383z"/>
		<path fill="#231F20" d="M78.309,234.014v-4.961l17.552-27.846H79.054v-5.176h23.583v4.695l-17.656,28.111h17.656v5.176H78.309z"/>
		<path fill="#231F20" d="M110.169,234.014v-37.982h5.763v37.982H110.169z"/>
		<path fill="#008F6F" d="M140.264,219.078h-8.638v14.936h-5.765v-37.982h14.403c7.415,0,12.162,4.908,12.162,11.523
			S147.679,219.078,140.264,219.078z M139.946,201.207h-8.32v12.643h8.32c4.003,0,6.72-2.295,6.72-6.295
			S143.949,201.207,139.946,201.207z"/>
		<path fill="#008F6F" d="M159.432,234.014v-37.982h5.764v32.807h18.297v5.176H159.432z"/>
		<path fill="#008F6F" d="M211.885,234.014l-2.615-7.627h-14.986l-2.611,7.627h-6.139l13.924-37.982h4.641l13.924,37.982H211.885z
			 M201.912,204.621l-5.924,16.857h11.686L201.912,204.621z"/>
		<path fill="#008F6F" d="M246.736,234.014l-17.547-26.727v26.727h-5.764v-37.982h5.279l17.555,26.674v-26.674h5.76v37.982H246.736z
			"/>
	</g>
	<g>
		<g>
			<g>
				<polygon fill="#008F6F" points="103.814,79.165 103.737,78.43 103.071,72.053 46.875,81.476 66.647,171.006 112.11,161.648 
					92.798,78.338 				"/>
				<polygon fill="#008F6F" points="195.703,83.834 199.5,84.206 195.781,64.987 154.561,72.053 155.32,83.036 155.496,83.048 
					165.869,174.383 210.791,168.504 				"/>
				<polygon opacity="0.76" fill="#008F6F" points="155.32,83.036 103.814,79.165 112.437,161.582 112.11,161.648 115.736,177.289 
					166.199,177.289 165.869,174.383 161.67,174.934 				"/>
				<polygon fill="#008F6F" points="103.814,79.165 92.798,78.338 112.11,161.648 112.437,161.582 				"/>
				<polygon opacity="0.76" fill="#008F6F" points="103.814,79.165 92.798,78.338 112.11,161.648 112.437,161.582 				"/>
				<polygon fill="#008F6F" points="155.32,83.036 161.67,174.934 165.869,174.383 155.496,83.048 				"/>
				<polygon opacity="0.76" fill="#008F6F" points="155.32,83.036 161.67,174.934 165.869,174.383 155.496,83.048 				"/>
				<polygon opacity="0.76" fill="#008F6F" points="210.791,168.504 213.336,182.785 252.125,182.785 243.895,88.546 199.5,84.206 
					215.684,167.863 				"/>
				<polygon fill="#008F6F" points="210.791,168.504 215.684,167.863 199.5,84.206 195.703,83.834 				"/>
				<polygon opacity="0.76" fill="#008F6F" points="210.791,168.504 215.684,167.863 199.5,84.206 195.703,83.834 				"/>
			</g>
			<g>
				<g>
					<path fill="#FFFFFF" d="M140.663,125.032c-1.183,1.579-1.618,3.516-1.371,5.36l-9.984,3.693
						c-0.359-0.503-0.779-0.944-1.239-1.333c-0.508-0.407-1.018-0.714-1.554-0.984l1.158-10.912c1.822-0.152,3.53-1.036,4.749-2.595
						c2.331-3.07,1.761-7.571-1.266-10.084c-3.048-2.485-7.419-2.014-9.755,1.032c-2.349,3.072-1.782,7.571,1.268,10.077
						c0.49,0.414,1.023,0.731,1.571,0.97l-1.155,10.921c-1.833,0.129-3.565,1.004-4.776,2.578c-2.35,3.079-1.776,7.583,1.273,10.084
						c3.039,2.487,7.401,2.04,9.752-1.029c1.186-1.572,1.61-3.536,1.356-5.398l9.966-3.677c0.361,0.496,0.77,0.971,1.281,1.378
						c3.028,2.505,7.399,2.039,9.733-1.023c2.348-3.074,1.783-7.575-1.252-10.09C147.375,121.52,143.002,121.978,140.663,125.032
						L140.663,125.032z"/>
				</g>
				<g>
					<path fill-rule="evenodd" clip-rule="evenodd" fill="#FFFFFF" d="M176.879,143.346l0.053-8.793
						c2.736-0.756,5.088-3.726,4.979-8.807c1.725,3.026,4.189,4.33,6.432,4.227l2.582,8.342l-4.936,3.977
						c-0.15,0.121-0.195,0.302-0.102,0.425c0.086,0.143,0.277,0.191,0.475,0.131l13.422-4.191c0.193-0.041,0.32-0.203,0.307-0.369
						c0-0.156-0.139-0.285-0.324-0.296l-6.184-0.449l-2.576-8.404c3.514-2.277,4.834-8.873-2.373-17.542
						c-2.977,0.997-5.945,2.01-8.918,3.008c-0.02,0.881-0.008,1.713,0.029,2.498c-3.092,0.086-6.182,0.154-9.277,0.231
						c-3.557,10.531-0.281,16.195,3.666,17.237l-0.021,8.73l-5.9,2.312c-0.178,0.074-0.271,0.232-0.232,0.393
						c0.055,0.16,0.223,0.269,0.422,0.269h14.062c0.199,0,0.367-0.109,0.41-0.269c0.045-0.16-0.051-0.318-0.223-0.393
						L176.879,143.346z M180.014,108.64c0.414,0,0.793,0.164,1.061,0.428c0.26,0.272,0.436,0.639,0.436,1.064
						c0,0.413-0.176,0.776-0.436,1.051c-0.268,0.269-0.646,0.428-1.061,0.428c-0.408,0-0.777-0.159-1.049-0.428
						c-0.273-0.275-0.432-0.638-0.432-1.051c0-0.426,0.158-0.792,0.432-1.064C179.236,108.804,179.605,108.64,180.014,108.64
						L180.014,108.64z M175.076,111.273c0.42,0,0.787,0.167,1.059,0.429c0.268,0.273,0.436,0.646,0.436,1.062
						c0,0.413-0.168,0.781-0.436,1.055c-0.271,0.268-0.639,0.427-1.059,0.427c-0.412,0-0.779-0.159-1.049-0.427
						c-0.273-0.274-0.436-0.642-0.436-1.055c0-0.417,0.162-0.789,0.436-1.062C174.297,111.44,174.664,111.273,175.076,111.273
						L175.076,111.273z M173.732,105.75c0.412,0,0.785,0.172,1.055,0.435c0.268,0.265,0.441,0.64,0.441,1.058
						c0,0.417-0.174,0.778-0.441,1.052c-0.27,0.271-0.643,0.431-1.055,0.431c-0.41,0-0.781-0.16-1.049-0.431
						c-0.271-0.274-0.439-0.635-0.439-1.052c0-0.418,0.168-0.792,0.439-1.058C172.951,105.922,173.322,105.75,173.732,105.75
						L173.732,105.75z"/>
				</g>
				<g>
					<circle fill="#FFFFFF" cx="226.729" cy="126.01" r="13.044"/>
					<g>
						<line fill="none" stroke="#008F6F" stroke-width="1.0613" x1="226.449" y1="116.095" x2="225.848" y2="127.582"/>
						<line fill="none" stroke="#008F6F" stroke-width="1.0613" x1="232.926" y1="126.656" x2="225.49" y2="127.365"/>
					</g>
				</g>
				<g>
					<path fill-rule="evenodd" clip-rule="evenodd" fill="#FFFFFF" d="M85.059,105.749c-7.212,0-13.088,5.857-13.088,13.077
						c0,7.203,12.243,26.873,12.243,26.873c0.47,0.768,1.236,0.768,1.711,0c0,0,12.218-19.651,12.218-26.873
						C98.144,111.605,92.288,105.749,85.059,105.749L85.059,105.749z M85.059,109.607c4.104,0,7.445,3.32,7.445,7.426
						c0,4.111-3.341,7.443-7.445,7.443c-4.106,0-7.431-3.332-7.431-7.443C77.628,112.927,80.953,109.607,85.059,109.607
						L85.059,109.607z"/>
				</g>
			</g>
		</g>
	</g>
</g>
</svg>
