<?xml version="1.0" encoding="utf-8"?>
<!-- Generator: Adobe Illustrator 13.0.0, SVG Export Plug-In . SVG Version: 6.00 Build 14948)  -->
<!DOCTYPE svg PUBLIC "-//W3C//DTD SVG 1.1//EN" "http://www.w3.org/Graphics/SVG/1.1/DTD/svg11.dtd">
<svg version="1.1" id="Calque_1" xmlns="http://www.w3.org/2000/svg" xmlns:xlink="http://www.w3.org/1999/xlink" x="0px" y="0px"
	 width="300px" height="300px" viewBox="0 0 300 300" enable-background="new 0 0 300 300" xml:space="preserve">
<g>
	<g>
		<g>
			<polygon fill="#008F6F" points="103.815,104.779 103.737,104.043 103.073,97.667 46.874,107.09 66.647,196.62 112.112,187.263 
				92.797,103.952 			"/>
			<polygon fill="#008F6F" points="195.705,109.448 199.502,109.82 195.785,90.601 154.562,97.667 155.322,108.65 155.5,108.662 
				165.871,199.996 210.791,194.117 			"/>
			<polygon opacity="0.76" fill="#008F6F" points="155.322,108.65 103.815,104.779 112.437,187.195 112.112,187.263 
				115.736,202.902 166.203,202.902 165.871,199.996 161.672,200.547 			"/>
			<polygon fill="#008F6F" points="103.815,104.779 92.797,103.952 112.112,187.263 112.437,187.195 			"/>
			<polygon opacity="0.76" fill="#008F6F" points="103.815,104.779 92.797,103.952 112.112,187.263 112.437,187.195 			"/>
			<polygon fill="#008F6F" points="155.322,108.65 161.672,200.547 165.871,199.996 155.5,108.662 			"/>
			<polygon opacity="0.76" fill="#008F6F" points="155.322,108.65 161.672,200.547 165.871,199.996 155.5,108.662 			"/>
			<polygon opacity="0.76" fill="#008F6F" points="210.791,194.117 213.336,208.399 252.127,208.399 243.896,114.16 199.502,109.82 
				215.686,193.477 			"/>
			<polygon fill="#008F6F" points="210.791,194.117 215.686,193.477 199.502,109.82 195.705,109.448 			"/>
			<polygon opacity="0.76" fill="#008F6F" points="210.791,194.117 215.686,193.477 199.502,109.82 195.705,109.448 			"/>
		</g>
		<g>
			<g>
				<path fill="#FFFFFF" d="M140.667,150.646c-1.187,1.579-1.62,3.515-1.372,5.36l-9.983,3.693c-0.36-0.504-0.779-0.945-1.239-1.334
					c-0.509-0.407-1.019-0.715-1.555-0.984l1.16-10.912c1.82-0.152,3.528-1.036,4.748-2.596c2.33-3.07,1.76-7.571-1.268-10.083
					c-3.047-2.485-7.417-2.014-9.755,1.032c-2.35,3.072-1.783,7.571,1.268,10.077c0.49,0.414,1.023,0.731,1.57,0.97l-1.154,10.921
					c-1.835,0.13-3.566,1.004-4.777,2.578c-2.351,3.078-1.774,7.583,1.274,10.085c3.036,2.485,7.4,2.039,9.751-1.029
					c1.187-1.572,1.612-3.535,1.357-5.398l9.965-3.676c0.361,0.494,0.771,0.971,1.283,1.378c3.026,2.505,7.398,2.039,9.732-1.022
					c2.346-3.074,1.783-7.575-1.251-10.091C147.376,147.133,143.005,147.592,140.667,150.646L140.667,150.646z"/>
			</g>
			<g>
				<path fill-rule="evenodd" clip-rule="evenodd" fill="#FFFFFF" d="M176.881,168.959l0.053-8.793
					c2.736-0.756,5.088-3.727,4.979-8.807c1.725,3.026,4.188,4.33,6.432,4.227l2.582,8.342l-4.936,3.977
					c-0.15,0.121-0.197,0.302-0.102,0.426c0.084,0.143,0.277,0.19,0.475,0.131l13.422-4.191c0.191-0.041,0.322-0.203,0.309-0.369
					c0-0.158-0.143-0.285-0.326-0.297l-6.182-0.449l-2.58-8.404c3.516-2.276,4.834-8.873-2.371-17.542
					c-2.979,0.997-5.945,2.009-8.92,3.008c-0.018,0.881-0.006,1.712,0.031,2.497c-3.092,0.086-6.182,0.154-9.277,0.231
					c-3.555,10.531-0.283,16.194,3.664,17.237l-0.018,8.73l-5.902,2.312c-0.18,0.074-0.27,0.232-0.23,0.393
					c0.051,0.16,0.221,0.27,0.42,0.27h14.061c0.201,0,0.369-0.109,0.41-0.27c0.047-0.16-0.051-0.318-0.221-0.393L176.881,168.959z
					 M180.016,134.254c0.414,0,0.791,0.162,1.061,0.428c0.26,0.272,0.438,0.639,0.438,1.064c0,0.413-0.178,0.776-0.438,1.051
					c-0.27,0.269-0.646,0.428-1.061,0.428c-0.41,0-0.775-0.159-1.049-0.428c-0.273-0.275-0.432-0.638-0.432-1.051
					c0-0.426,0.158-0.792,0.432-1.064C179.24,134.416,179.605,134.254,180.016,134.254L180.016,134.254z M175.076,136.887
					c0.422,0,0.789,0.166,1.061,0.429c0.268,0.273,0.436,0.646,0.436,1.062c0,0.413-0.168,0.781-0.436,1.055
					c-0.271,0.268-0.639,0.427-1.061,0.427c-0.41,0-0.777-0.159-1.049-0.427c-0.271-0.274-0.434-0.642-0.434-1.055
					c0-0.416,0.162-0.788,0.434-1.062C174.299,137.053,174.666,136.887,175.076,136.887L175.076,136.887z M173.732,131.364
					c0.412,0,0.787,0.172,1.057,0.435c0.268,0.265,0.441,0.64,0.441,1.058c0,0.417-0.174,0.778-0.441,1.052
					c-0.27,0.271-0.645,0.431-1.057,0.431c-0.408,0-0.777-0.16-1.047-0.431c-0.271-0.274-0.441-0.635-0.441-1.052
					c0-0.418,0.17-0.792,0.441-1.058C172.955,131.536,173.324,131.364,173.732,131.364L173.732,131.364z"/>
			</g>
			<g>
				<path fill="#FFFFFF" d="M239.775,151.623c0,7.205-5.842,13.044-13.043,13.044c-7.203,0-13.045-5.839-13.045-13.044
					c0-7.203,5.842-13.041,13.045-13.041C233.934,138.583,239.775,144.42,239.775,151.623z"/>
				<g>
					<line fill="none" stroke="#008F6F" stroke-width="1.0613" x1="226.451" y1="141.708" x2="225.85" y2="153.194"/>
					<line fill="none" stroke="#008F6F" stroke-width="1.0613" x1="232.928" y1="152.27" x2="225.492" y2="152.979"/>
				</g>
			</g>
			<g>
				<path fill-rule="evenodd" clip-rule="evenodd" fill="#FFFFFF" d="M85.061,131.362c-7.214,0-13.091,5.856-13.091,13.077
					c0,7.203,12.244,26.873,12.244,26.873c0.471,0.768,1.236,0.768,1.713,0c0,0,12.218-19.651,12.218-26.873
					C98.145,137.219,92.288,131.362,85.061,131.362L85.061,131.362z M85.061,135.221c4.103,0,7.444,3.32,7.444,7.426
					c0,4.111-3.342,7.443-7.444,7.443c-4.109,0-7.434-3.332-7.434-7.443C77.627,138.541,80.952,135.221,85.061,135.221
					L85.061,135.221z"/>
			</g>
		</g>
	</g>
</g>
</svg>
