<?xml version="1.0" encoding="utf-8"?>
<!-- Generator: Adobe Illustrator 13.0.0, SVG Export Plug-In . SVG Version: 6.00 Build 14948)  -->
<!DOCTYPE svg PUBLIC "-//W3C//DTD SVG 1.1//EN" "http://www.w3.org/Graphics/SVG/1.1/DTD/svg11.dtd">
<svg version="1.1" id="Calque_1" xmlns="http://www.w3.org/2000/svg" xmlns:xlink="http://www.w3.org/1999/xlink" x="0px" y="0px"
	 width="300px" height="300px" viewBox="0 0 300 300" enable-background="new 0 0 300 300" xml:space="preserve">
<g>
	<path fill="#231F20" d="M49.751,243.72c-0.494,0.495-1.275,0.796-2.177,0.796c-0.956,0-1.701-0.248-2.356-1.026v4.551h-1.806
		v-12.608h1.771v0.956c0.672-0.815,1.398-1.063,2.373-1.063c0.903,0,1.701,0.301,2.195,0.798c0.904,0.901,1.008,2.426,1.008,3.789
		S50.655,242.816,49.751,243.72z M47.095,236.936c-1.631,0-1.877,1.382-1.877,2.976c0,1.595,0.246,2.993,1.877,2.993
		c1.629,0,1.858-1.398,1.858-2.993C48.954,238.317,48.724,236.936,47.095,236.936z"/>
	<path fill="#231F20" d="M59.214,243.453c-0.584,0.604-1.471,1.062-2.692,1.062c-1.221,0-2.09-0.459-2.674-1.062
		c-0.85-0.885-1.064-2.019-1.064-3.542c0-1.505,0.214-2.639,1.064-3.523c0.583-0.604,1.453-1.063,2.674-1.063
		c1.222,0,2.108,0.46,2.692,1.063c0.851,0.885,1.063,2.019,1.063,3.523C60.277,241.435,60.065,242.568,59.214,243.453z
		 M57.85,237.45c-0.334-0.337-0.796-0.515-1.328-0.515c-0.531,0-0.974,0.178-1.309,0.515c-0.55,0.548-0.622,1.487-0.622,2.461
		c0,0.975,0.071,1.914,0.622,2.462c0.334,0.337,0.778,0.531,1.309,0.531c0.532,0,0.994-0.194,1.328-0.531
		c0.548-0.548,0.621-1.487,0.621-2.462C58.471,238.938,58.398,237.998,57.85,237.45z"/>
	<path fill="#231F20" d="M68.147,244.409v-0.902c-0.621,0.674-1.49,1.009-2.393,1.009c-0.921,0-1.683-0.301-2.213-0.812
		c-0.692-0.675-0.905-1.524-0.905-2.534v-5.737h1.809v5.472c0,1.399,0.798,2.001,1.807,2.001c1.01,0,1.858-0.62,1.858-2.001v-5.472
		h1.808v8.978H68.147z"/>
	<path fill="#231F20" d="M77.732,237.539c-0.407-0.407-0.726-0.604-1.346-0.604c-0.975,0-1.789,0.779-1.789,2.02v5.454h-1.806
		v-8.978h1.77v0.973c0.46-0.637,1.384-1.08,2.392-1.08c0.869,0,1.523,0.231,2.143,0.85L77.732,237.539z"/>
	<path fill="#231F20" d="M87.73,244.516c-1.471,0-2.71-0.248-3.774-1.293l1.187-1.186c0.726,0.744,1.7,0.938,2.587,0.938
		c1.096,0,1.965-0.389,1.965-1.239c0-0.602-0.337-0.991-1.205-1.062l-1.435-0.124c-1.681-0.142-2.655-0.903-2.655-2.479
		c0-1.755,1.505-2.746,3.383-2.746c1.345,0,2.495,0.283,3.329,1.011l-1.133,1.15c-0.568-0.478-1.364-0.655-2.215-0.655
		c-1.082,0-1.629,0.478-1.629,1.15c0,0.531,0.282,0.939,1.237,1.027l1.42,0.123c1.681,0.144,2.673,0.939,2.673,2.535
		C91.466,243.542,89.873,244.516,87.73,244.516z"/>
	<path fill="#231F20" d="M93.613,235.184V231.8h1.788v3.384H93.613z"/>
	<path fill="#231F20" d="M104.223,243.453c-0.583,0.604-1.467,1.062-2.693,1.062c-1.22,0-2.089-0.459-2.673-1.062
		c-0.85-0.885-1.063-2.019-1.063-3.542c0-1.505,0.213-2.639,1.063-3.523c0.584-0.604,1.454-1.063,2.673-1.063
		c1.226,0,2.109,0.46,2.693,1.063c0.852,0.885,1.062,2.019,1.062,3.523C105.286,241.435,105.075,242.568,104.223,243.453z
		 M102.86,237.45c-0.336-0.337-0.797-0.515-1.33-0.515c-0.53,0-0.972,0.178-1.308,0.515c-0.548,0.548-0.621,1.487-0.621,2.461
		c0,0.975,0.073,1.914,0.621,2.462c0.336,0.337,0.778,0.531,1.308,0.531c0.533,0,0.994-0.194,1.33-0.531
		c0.549-0.548,0.619-1.487,0.619-2.462C103.479,238.938,103.409,237.998,102.86,237.45z"/>
	<path fill="#231F20" d="M112.678,237.539c-0.408-0.407-0.727-0.604-1.347-0.604c-0.973,0-1.789,0.779-1.789,2.02v5.454h-1.805
		v-8.978h1.771v0.973c0.458-0.637,1.381-1.08,2.391-1.08c0.868,0,1.523,0.231,2.142,0.85L112.678,237.539z"/>
	<path fill="#231F20" d="M117.955,248.146c-1.363,0-2.231-0.318-3.171-1.186l1.153-1.152c0.566,0.531,1.06,0.797,1.947,0.797
		c1.524,0,2.109-1.08,2.109-2.283v-1.152c-0.655,0.779-1.4,1.027-2.321,1.027c-0.902,0-1.646-0.301-2.143-0.797
		c-0.867-0.868-1.011-2.126-1.011-3.648c0-1.523,0.144-2.78,1.011-3.648c0.496-0.496,1.259-0.779,2.161-0.779
		c0.958,0,1.684,0.248,2.355,1.063v-0.956h1.754v8.925C121.798,246.553,120.348,248.146,117.955,248.146z M118.167,236.936
		c-1.629,0-1.84,1.4-1.84,2.816c0,1.417,0.211,2.816,1.84,2.816c1.629,0,1.825-1.399,1.825-2.816
		C119.992,238.336,119.797,236.936,118.167,236.936z"/>
	<path fill="#231F20" d="M129.509,244.409v-0.813c-0.657,0.654-1.276,0.92-2.392,0.92c-1.118,0-1.861-0.266-2.409-0.812
		c-0.461-0.48-0.708-1.171-0.708-1.933c0-1.505,1.045-2.585,3.101-2.585h2.373v-0.638c0-1.134-0.567-1.683-1.965-1.683
		c-0.992,0-1.471,0.23-1.966,0.867l-1.187-1.115c0.849-0.992,1.734-1.293,3.223-1.293c2.46,0,3.703,1.045,3.703,3.082v6.003H129.509
		z M129.473,240.443h-2.106c-1.064,0-1.614,0.477-1.614,1.292s0.512,1.276,1.646,1.276c0.69,0,1.205-0.054,1.683-0.515
		c0.265-0.265,0.39-0.69,0.39-1.328V240.443z"/>
	<path fill="#231F20" d="M139.539,244.409v-5.472c0-1.398-0.798-2.002-1.807-2.002c-1.011,0-1.86,0.619-1.86,2.002v5.472h-1.806
		v-8.978h1.771v0.903c0.62-0.675,1.488-1.011,2.391-1.011c0.92,0,1.684,0.301,2.215,0.814c0.69,0.674,0.901,1.523,0.901,2.533v5.737
		H139.539z"/>
	<path fill="#231F20" d="M144.076,233.658v-1.911h1.913v1.911H144.076z M144.128,244.409v-8.978h1.807v8.978H144.128z"/>
	<path fill="#231F20" d="M151.713,244.516c-1.469,0-2.711-0.248-3.773-1.293l1.187-1.186c0.726,0.744,1.702,0.938,2.586,0.938
		c1.098,0,1.964-0.389,1.964-1.239c0-0.602-0.335-0.991-1.202-1.062l-1.436-0.124c-1.682-0.142-2.657-0.903-2.657-2.479
		c0-1.755,1.506-2.746,3.383-2.746c1.346,0,2.496,0.283,3.33,1.011l-1.134,1.15c-0.566-0.478-1.363-0.655-2.214-0.655
		c-1.08,0-1.629,0.478-1.629,1.15c0,0.531,0.284,0.939,1.239,1.027l1.419,0.123c1.68,0.144,2.672,0.939,2.672,2.535
		C155.448,243.542,153.855,244.516,151.713,244.516z"/>
	<path fill="#231F20" d="M158.979,240.443c0,1.539,0.816,2.515,2.284,2.515c1.011,0,1.542-0.284,2.179-0.921l1.152,1.08
		c-0.923,0.921-1.789,1.398-3.364,1.398c-2.251,0-4.042-1.186-4.042-4.604c0-2.903,1.508-4.587,3.812-4.587
		c2.406,0,3.805,1.771,3.805,4.321v0.798H158.979z M162.77,237.963c-0.283-0.673-0.922-1.133-1.77-1.133
		c-0.852,0-1.509,0.46-1.791,1.133c-0.176,0.408-0.213,0.674-0.23,1.223h4.039C163,238.637,162.948,238.371,162.77,237.963z"/>
	<path fill="#231F20" d="M172.142,237.539c-0.405-0.407-0.724-0.604-1.344-0.604c-0.975,0-1.79,0.779-1.79,2.02v5.454h-1.806v-8.978
		h1.771v0.973c0.461-0.637,1.383-1.08,2.391-1.08c0.869,0,1.522,0.231,2.143,0.85L172.142,237.539z"/>
	<path fill="#231F20" d="M174.928,247.156v-4.8h2.054v3.116L174.928,247.156z"/>
	<path fill="#231F20" d="M187.594,244.516c-2.018,0-4.002-1.238-4.002-4.604c0-3.364,1.984-4.587,4.002-4.587
		c1.241,0,2.107,0.354,2.959,1.256l-1.239,1.206c-0.567-0.62-1.011-0.851-1.72-0.851c-0.691,0-1.272,0.285-1.664,0.797
		c-0.391,0.496-0.531,1.134-0.531,2.179s0.141,1.7,0.531,2.196c0.392,0.514,0.973,0.797,1.664,0.797c0.709,0,1.152-0.23,1.72-0.85
		l1.239,1.187C189.701,244.145,188.835,244.516,187.594,244.516z"/>
	<path fill="#231F20" d="M192.594,235.184V231.8h1.79v3.384H192.594z"/>
	<path fill="#231F20" d="M198.532,240.443c0,1.539,0.813,2.515,2.282,2.515c1.01,0,1.541-0.284,2.18-0.921l1.149,1.08
		c-0.921,0.921-1.788,1.398-3.362,1.398c-2.249,0-4.04-1.186-4.04-4.604c0-2.903,1.505-4.587,3.808-4.587
		c2.408,0,3.809,1.771,3.809,4.321v0.798H198.532z M202.32,237.963c-0.283-0.673-0.922-1.133-1.771-1.133
		c-0.851,0-1.504,0.46-1.788,1.133c-0.177,0.408-0.212,0.674-0.229,1.223h4.036C202.553,238.637,202.498,238.371,202.32,237.963z"/>
	<path fill="#231F20" d="M209.658,244.516c-1.469,0-2.711-0.248-3.771-1.293l1.186-1.186c0.726,0.744,1.701,0.938,2.586,0.938
		c1.098,0,1.965-0.389,1.965-1.239c0-0.602-0.336-0.991-1.203-1.062l-1.436-0.124c-1.684-0.142-2.656-0.903-2.656-2.479
		c0-1.755,1.506-2.746,3.383-2.746c1.344,0,2.498,0.283,3.331,1.011l-1.135,1.15c-0.565-0.478-1.364-0.655-2.216-0.655
		c-1.078,0-1.627,0.478-1.627,1.15c0,0.531,0.283,0.939,1.24,1.027l1.414,0.123c1.685,0.144,2.675,0.939,2.675,2.535
		C213.394,243.542,211.801,244.516,209.658,244.516z"/>
	<path fill="#231F20" d="M218.091,244.409c-1.683,0-2.461-1.204-2.461-2.495v-4.942h-1.027v-1.382h1.027v-2.729h1.807v2.729h1.734
		v1.382h-1.734v4.854c0,0.655,0.318,1.045,0.993,1.045h0.741v1.539H218.091z"/>
	<path fill="#008F6F" d="M230.07,239.221v5.188h-1.913v-5.188l-3.772-7.421h2.092l2.639,5.544l2.637-5.544h2.091L230.07,239.221z"/>
	<path fill="#008F6F" d="M234.784,244.409v-1.646l5.829-9.245h-5.58V231.8h7.829v1.559L237,242.691h5.862v1.718H234.784z"/>
	<path fill="#008F6F" d="M245.365,244.409V231.8h1.913v12.609H245.365z"/>
	<path fill="#231F20" d="M257.13,240.654h-1.418l-0.389-8.854h2.196L257.13,240.654z M255.43,244.409v-1.929h1.982v1.929H255.43z"/>
</g>
<g>
	<g>
		<path fill="#231F20" d="M65.071,206.74v15.631h-5.763V206.74l-11.362-22.352h6.296l7.946,16.698l7.946-16.698h6.3L65.071,206.74z"
			/>
		<path fill="#231F20" d="M79.274,222.371v-4.96l17.553-27.847H80.02v-5.176h23.583v4.695l-17.656,28.112h17.656v5.175H79.274z"/>
		<path fill="#231F20" d="M111.134,222.371v-37.982h5.764v37.982H111.134z"/>
		<path fill="#008F6F" d="M141.23,207.436h-8.639v14.936h-5.764v-37.982h14.403c7.415,0,12.163,4.908,12.163,11.523
			C153.394,202.528,148.645,207.436,141.23,207.436z M140.911,189.564h-8.319v12.643h8.319c4.005,0,6.721-2.294,6.721-6.295
			C147.632,191.912,144.916,189.564,140.911,189.564z"/>
		<path fill="#008F6F" d="M160.396,222.371v-37.982h5.765v32.808h18.296v5.175H160.396z"/>
		<path fill="#008F6F" d="M212.851,222.371l-2.614-7.627h-14.988l-2.611,7.627H186.5l13.924-37.982h4.641l13.923,37.982H212.851z
			 M202.879,192.979l-5.926,16.857h11.686L202.879,192.979z"/>
		<path fill="#008F6F" d="M247.703,222.371l-17.547-26.727v26.727h-5.764v-37.982h5.279l17.555,26.674v-26.674h5.758v37.982H247.703
			z"/>
	</g>
	<g>
		<g>
			<g>
				<polygon fill="#008F6F" points="104.78,67.523 104.704,66.788 104.037,60.411 47.841,69.834 67.613,159.364 113.076,150.007 
					93.764,66.696 				"/>
				<polygon fill="#008F6F" points="196.668,72.192 200.466,72.564 196.748,53.345 155.525,60.411 156.286,71.394 156.463,71.406 
					166.836,162.74 211.756,156.861 				"/>
				<polygon opacity="0.76" fill="#008F6F" points="156.286,71.394 104.78,67.523 113.403,149.939 113.076,150.007 116.702,165.647 
					167.166,165.647 166.836,162.74 162.635,163.291 				"/>
				<polygon fill="#008F6F" points="104.78,67.523 93.764,66.696 113.076,150.007 113.403,149.939 				"/>
				<polygon opacity="0.76" fill="#008F6F" points="104.78,67.523 93.764,66.696 113.076,150.007 113.403,149.939 				"/>
				<polygon fill="#008F6F" points="156.286,71.394 162.635,163.291 166.836,162.74 156.463,71.406 				"/>
				<polygon opacity="0.76" fill="#008F6F" points="156.286,71.394 162.635,163.291 166.836,162.74 156.463,71.406 				"/>
				<polygon opacity="0.76" fill="#008F6F" points="211.756,156.861 214.3,171.144 253.09,171.144 244.861,76.904 200.466,72.564 
					216.65,156.221 				"/>
				<polygon fill="#008F6F" points="211.756,156.861 216.65,156.221 200.466,72.564 196.668,72.192 				"/>
				<polygon opacity="0.76" fill="#008F6F" points="211.756,156.861 216.65,156.221 200.466,72.564 196.668,72.192 				"/>
			</g>
			<g>
				<g>
					<path fill="#FFFFFF" d="M141.629,113.39c-1.185,1.579-1.62,3.516-1.372,5.36l-9.983,3.693c-0.36-0.503-0.779-0.944-1.239-1.333
						c-0.507-0.407-1.017-0.714-1.553-0.984l1.158-10.912c1.821-0.152,3.53-1.036,4.748-2.595c2.331-3.07,1.762-7.571-1.267-10.084
						c-3.047-2.485-7.418-2.014-9.755,1.032c-2.349,3.072-1.781,7.571,1.268,10.077c0.491,0.414,1.023,0.731,1.571,0.97
						l-1.155,10.921c-1.834,0.129-3.566,1.004-4.777,2.578c-2.349,3.079-1.775,7.583,1.273,10.084
						c3.039,2.487,7.402,2.04,9.752-1.029c1.186-1.572,1.61-3.536,1.355-5.398l9.965-3.677c0.362,0.496,0.772,0.971,1.283,1.378
						c3.028,2.505,7.399,2.039,9.732-1.023c2.347-3.074,1.782-7.575-1.252-10.09C148.34,109.877,143.968,110.336,141.629,113.39
						L141.629,113.39z"/>
				</g>
				<g>
					<path fill-rule="evenodd" clip-rule="evenodd" fill="#FFFFFF" d="M177.844,131.704l0.053-8.793
						c2.736-0.756,5.089-3.726,4.979-8.807c1.724,3.026,4.188,4.33,6.433,4.227l2.58,8.342l-4.936,3.977
						c-0.149,0.121-0.195,0.302-0.102,0.425c0.086,0.143,0.277,0.191,0.475,0.131l13.422-4.191c0.192-0.041,0.322-0.203,0.309-0.369
						c0-0.156-0.142-0.285-0.326-0.296l-6.182-0.449l-2.578-8.404c3.516-2.277,4.834-8.873-2.371-17.542
						c-2.979,0.997-5.946,2.01-8.92,3.008c-0.018,0.881-0.008,1.713,0.03,2.498c-3.093,0.086-6.184,0.154-9.278,0.231
						c-3.555,10.531-0.28,16.195,3.666,17.237l-0.02,8.73l-5.902,2.312c-0.177,0.074-0.271,0.232-0.231,0.393
						c0.055,0.16,0.222,0.269,0.422,0.269h14.061c0.2,0,0.37-0.109,0.411-0.269c0.046-0.16-0.052-0.318-0.221-0.393L177.844,131.704
						z M180.98,96.998c0.412,0,0.791,0.164,1.059,0.428c0.261,0.272,0.438,0.639,0.438,1.064c0,0.413-0.177,0.776-0.438,1.051
						c-0.268,0.269-0.646,0.428-1.059,0.428c-0.411,0-0.778-0.159-1.05-0.428c-0.273-0.275-0.431-0.638-0.431-1.051
						c0-0.426,0.157-0.792,0.431-1.064C180.202,97.162,180.569,96.998,180.98,96.998L180.98,96.998z M176.041,99.631
						c0.422,0,0.789,0.167,1.061,0.429c0.266,0.273,0.434,0.646,0.434,1.062c0,0.413-0.168,0.781-0.434,1.055
						c-0.271,0.268-0.639,0.427-1.061,0.427c-0.412,0-0.779-0.159-1.05-0.427c-0.271-0.274-0.433-0.642-0.433-1.055
						c0-0.417,0.162-0.789,0.433-1.062C175.262,99.798,175.629,99.631,176.041,99.631L176.041,99.631z M174.697,94.108
						c0.413,0,0.787,0.172,1.055,0.435c0.269,0.265,0.441,0.64,0.441,1.058c0,0.417-0.173,0.778-0.441,1.052
						c-0.268,0.271-0.642,0.431-1.055,0.431c-0.408,0-0.779-0.16-1.049-0.431c-0.271-0.274-0.439-0.635-0.439-1.052
						c0-0.418,0.168-0.792,0.439-1.058C173.918,94.28,174.289,94.108,174.697,94.108L174.697,94.108z"/>
				</g>
				<g>
					<circle fill="#FFFFFF" cx="227.695" cy="114.368" r="13.044"/>
					<g>
						<line fill="none" stroke="#008F6F" stroke-width="1.0613" x1="227.414" y1="104.453" x2="226.814" y2="115.939"/>
						<line fill="none" stroke="#008F6F" stroke-width="1.0613" x1="233.891" y1="115.014" x2="226.456" y2="115.723"/>
					</g>
				</g>
				<g>
					<path fill-rule="evenodd" clip-rule="evenodd" fill="#FFFFFF" d="M86.025,94.106c-7.212,0-13.088,5.857-13.088,13.077
						c0,7.203,12.243,26.873,12.243,26.873c0.47,0.768,1.237,0.768,1.711,0c0,0,12.219-19.651,12.219-26.873
						C99.11,99.963,93.254,94.106,86.025,94.106L86.025,94.106z M86.025,97.965c4.104,0,7.445,3.32,7.445,7.426
						c0,4.111-3.341,7.443-7.445,7.443c-4.106,0-7.431-3.332-7.431-7.443C78.594,101.285,81.919,97.965,86.025,97.965L86.025,97.965
						z"/>
				</g>
			</g>
		</g>
	</g>
</g>
</svg>
