<?xml version="1.0" encoding="utf-8"?>
<!-- Generator: Adobe Illustrator 13.0.0, SVG Export Plug-In . SVG Version: 6.00 Build 14948)  -->
<!DOCTYPE svg PUBLIC "-//W3C//DTD SVG 1.1//EN" "http://www.w3.org/Graphics/SVG/1.1/DTD/svg11.dtd">
<svg version="1.1" id="Calque_1" xmlns="http://www.w3.org/2000/svg" xmlns:xlink="http://www.w3.org/1999/xlink" x="0px" y="0px"
	 width="300px" height="300px" viewBox="0 0 300 300" enable-background="new 0 0 300 300" xml:space="preserve">
<g>
	<path fill="#FFFFFF" d="M78.306,105.525c0,4.111,3.326,7.442,7.432,7.442c4.104,0,7.445-3.331,7.445-7.442
		c0-4.107-3.341-7.429-7.445-7.429C81.632,98.097,78.306,101.418,78.306,105.525z"/>
	<path fill="#FFFFFF" d="M104.493,67.657l-0.077-0.734l-0.667-6.377l-56.195,9.423l19.772,89.528l45.463-9.356L93.477,66.828
		L104.493,67.657z M98.822,107.316c0,7.224-12.219,26.873-12.219,26.873c-0.474,0.768-1.241,0.768-1.71,0
		c0,0-12.243-19.67-12.243-26.873c0-7.219,5.875-13.077,13.088-13.077C92.967,94.239,98.822,100.098,98.822,107.316z"/>
	<path fill="#FFFFFF" d="M200.178,72.697l-3.717-19.219l-41.222,7.068l0.76,10.98l0.177,0.014l10.373,91.334l44.919-5.879
		l-15.087-84.667L200.178,72.697z M179.643,97.56c0.273-0.265,0.641-0.428,1.051-0.428c0.413,0,0.791,0.163,1.06,0.428
		c0.261,0.271,0.437,0.64,0.437,1.064c0,0.413-0.176,0.775-0.437,1.052c-0.269,0.269-0.646,0.428-1.06,0.428
		c-0.41,0-0.777-0.159-1.051-0.428c-0.271-0.276-0.43-0.639-0.43-1.052C179.213,98.199,179.371,97.831,179.643,97.56z
		 M177.247,101.256c0,0.413-0.167,0.781-0.434,1.055c-0.271,0.269-0.638,0.428-1.06,0.428c-0.412,0-0.779-0.159-1.051-0.428
		c-0.27-0.273-0.433-0.642-0.433-1.055c0-0.417,0.163-0.786,0.433-1.061c0.271-0.265,0.639-0.43,1.051-0.43
		c0.422,0,0.788,0.165,1.06,0.43C177.08,100.47,177.247,100.839,177.247,101.256z M173.361,94.677
		c0.27-0.262,0.64-0.436,1.049-0.436c0.412,0,0.785,0.174,1.055,0.436c0.268,0.266,0.441,0.641,0.441,1.058
		c0,0.418-0.174,0.778-0.441,1.052c-0.27,0.272-0.643,0.432-1.055,0.432c-0.409,0-0.779-0.159-1.049-0.432
		c-0.271-0.273-0.439-0.634-0.439-1.052C172.922,95.317,173.09,94.942,173.361,94.677z M200.443,126.482
		c0.186,0.012,0.326,0.14,0.326,0.295c0.014,0.166-0.117,0.329-0.308,0.368l-13.423,4.193c-0.197,0.06-0.39,0.011-0.475-0.131
		c-0.094-0.124-0.048-0.305,0.102-0.425l4.936-3.978l-2.58-8.342c-2.244,0.104-4.709-1.201-6.433-4.226
		c0.108,5.08-2.243,8.049-4.979,8.807l-0.054,8.792l5.772,2.268c0.171,0.073,0.268,0.231,0.222,0.391
		c-0.041,0.159-0.211,0.269-0.411,0.269h-14.061c-0.2,0-0.368-0.109-0.422-0.269c-0.039-0.159,0.054-0.317,0.231-0.391l5.901-2.313
		l0.021-8.73c-3.946-1.042-7.221-6.705-3.665-17.238c3.093-0.076,6.186-0.144,9.276-0.229c-0.036-0.784-0.047-1.617-0.029-2.499
		c2.974-0.997,5.94-2.011,8.92-3.007c7.205,8.669,5.887,15.267,2.371,17.541l2.578,8.404L200.443,126.482z"/>
	<path opacity="0.76" fill="#FFFFFF" d="M155.999,71.526l-51.506-3.869l8.622,82.417l-0.325,0.066l3.625,15.641h50.465l-0.33-2.907
		l-4.202,0.551L155.999,71.526z M152.348,122.583c-2.333,3.063-6.704,3.529-9.732,1.021c-0.51-0.406-0.92-0.882-1.283-1.377
		l-9.965,3.676c0.254,1.862-0.17,3.827-1.356,5.398c-2.351,3.07-6.713,3.516-9.752,1.028c-3.049-2.5-3.623-7.004-1.272-10.084
		c1.211-1.573,2.942-2.447,4.776-2.579l1.155-10.92c-0.547-0.237-1.08-0.556-1.571-0.969c-3.049-2.509-3.617-7.007-1.268-10.077
		c2.337-3.047,6.708-3.519,9.755-1.032c3.028,2.511,3.597,7.015,1.266,10.083c-1.218,1.56-2.927,2.443-4.748,2.597l-1.159,10.909
		c0.536,0.272,1.046,0.578,1.553,0.985c0.46,0.39,0.88,0.83,1.24,1.335l9.983-3.695c-0.249-1.843,0.187-3.78,1.372-5.36
		c2.339-3.053,6.711-3.511,9.753-1.029C154.129,115.007,154.695,119.508,152.348,122.583z"/>
	<polygon fill="#FFFFFF" points="104.493,67.657 93.477,66.828 112.789,150.141 113.114,150.074 	"/>
	<polygon opacity="0.76" fill="#FFFFFF" points="104.493,67.657 93.477,66.828 112.789,150.141 113.114,150.074 	"/>
	<polygon fill="#FFFFFF" points="155.999,71.526 162.347,163.425 166.549,162.874 156.176,71.54 	"/>
	<polygon opacity="0.76" fill="#FFFFFF" points="155.999,71.526 162.347,163.425 166.549,162.874 156.176,71.54 	"/>
	<path opacity="0.76" fill="#FFFFFF" d="M244.573,77.039l-44.396-4.342l16.185,83.657l-4.895,0.641l2.545,14.283h38.79
		L244.573,77.039z M227.408,127.545c-7.204,0-13.045-5.837-13.045-13.045c0-7.2,5.841-13.041,13.045-13.041
		c7.203,0,13.043,5.841,13.043,13.041C240.451,121.708,234.611,127.545,227.408,127.545z"/>
	<polygon fill="#FFFFFF" points="200.178,72.697 196.381,72.328 211.468,156.995 216.362,156.354 	"/>
	<polygon opacity="0.76" fill="#FFFFFF" points="200.178,72.697 196.381,72.328 211.468,156.995 216.362,156.354 	"/>
</g>
<g>
	<path fill="#FFFFFF" d="M64.784,206.585v15.633h-5.764v-15.633L47.658,184.23h6.297l7.945,16.7l7.947-16.7h6.3L64.784,206.585z"/>
	<path fill="#FFFFFF" d="M78.987,222.218v-4.961l17.552-27.851H79.732v-5.176h23.583v4.698L85.66,217.042h17.656v5.176H78.987z"/>
	<path fill="#FFFFFF" d="M110.847,222.218V184.23h5.763v37.987H110.847z"/>
	<path opacity="0.76" fill="#FFFFFF" d="M140.943,207.28h-8.64v14.938h-5.764V184.23h14.403c7.415,0,12.164,4.91,12.164,11.526
		S148.357,207.28,140.943,207.28z M140.623,189.406h-8.319v12.644h8.319c4.005,0,6.722-2.292,6.722-6.293
		C147.344,191.757,144.628,189.406,140.623,189.406z"/>
	<path opacity="0.76" fill="#FFFFFF" d="M160.109,222.218V184.23h5.764v32.812h18.297v5.176H160.109z"/>
	<path opacity="0.76" fill="#FFFFFF" d="M212.562,222.218l-2.613-7.629H194.96l-2.61,7.629h-6.137l13.924-37.987h4.641
		l13.923,37.987H212.562z M202.592,192.821l-5.926,16.861h11.684L202.592,192.821z"/>
	<path opacity="0.76" fill="#FFFFFF" d="M247.416,222.218l-17.547-26.73v26.73h-5.764V184.23h5.279l17.554,26.678V184.23h5.759
		v37.987H247.416z"/>
</g>
<g>
	<path fill="#FFFFFF" d="M49.463,243.565c-0.494,0.497-1.274,0.798-2.177,0.798c-0.957,0-1.701-0.249-2.355-1.026v4.551h-1.807
		v-12.609h1.771v0.957c0.673-0.816,1.399-1.063,2.374-1.063c0.903,0,1.701,0.299,2.195,0.797c0.903,0.903,1.008,2.426,1.008,3.789
		S50.367,242.664,49.463,243.565z M46.807,236.784c-1.631,0-1.876,1.38-1.876,2.974c0,1.595,0.245,2.994,1.876,2.994
		c1.629,0,1.859-1.399,1.859-2.994C48.666,238.164,48.436,236.784,46.807,236.784z"/>
	<path fill="#FFFFFF" d="M58.927,243.301c-0.584,0.603-1.471,1.062-2.693,1.062c-1.221,0-2.09-0.46-2.674-1.062
		c-0.851-0.887-1.063-2.021-1.063-3.543c0-1.505,0.213-2.639,1.063-3.522c0.584-0.604,1.453-1.063,2.674-1.063
		c1.222,0,2.108,0.46,2.693,1.063c0.851,0.884,1.063,2.018,1.063,3.522C59.99,241.28,59.777,242.414,58.927,243.301z
		 M57.562,237.297c-0.334-0.337-0.796-0.513-1.329-0.513c-0.531,0-0.974,0.176-1.308,0.513c-0.551,0.549-0.623,1.486-0.623,2.461
		s0.072,1.915,0.623,2.462c0.334,0.337,0.777,0.532,1.308,0.532c0.532,0,0.994-0.195,1.329-0.532
		c0.549-0.547,0.621-1.487,0.621-2.462S58.111,237.846,57.562,237.297z"/>
	<path fill="#FFFFFF" d="M67.859,244.257v-0.903c-0.621,0.675-1.489,1.01-2.392,1.01c-0.921,0-1.682-0.301-2.213-0.814
		c-0.692-0.674-0.905-1.523-0.905-2.531v-5.739h1.808v5.471c0,1.4,0.798,2.003,1.806,2.003c1.011,0,1.86-0.622,1.86-2.003v-5.471
		h1.808v8.979H67.859z"/>
	<path fill="#FFFFFF" d="M77.445,237.385c-0.407-0.405-0.727-0.601-1.346-0.601c-0.975,0-1.789,0.777-1.789,2.019v5.454h-1.806
		v-8.979h1.771v0.973c0.46-0.636,1.383-1.079,2.391-1.079c0.869,0,1.523,0.229,2.143,0.85L77.445,237.385z"/>
	<path fill="#FFFFFF" d="M87.442,244.363c-1.47,0-2.71-0.249-3.774-1.293l1.187-1.187c0.725,0.743,1.701,0.939,2.587,0.939
		c1.096,0,1.966-0.392,1.966-1.242c0-0.602-0.337-0.99-1.206-1.062l-1.434-0.123c-1.682-0.141-2.656-0.903-2.656-2.48
		c0-1.753,1.505-2.744,3.383-2.744c1.346,0,2.495,0.282,3.33,1.011l-1.133,1.15c-0.568-0.479-1.364-0.657-2.216-0.657
		c-1.081,0-1.627,0.48-1.627,1.152c0,0.531,0.281,0.938,1.237,1.026l1.42,0.122c1.681,0.145,2.673,0.94,2.673,2.535
		C91.178,243.389,89.585,244.363,87.442,244.363z"/>
	<path fill="#FFFFFF" d="M93.326,235.03v-3.384h1.788v3.384H93.326z"/>
	<path fill="#FFFFFF" d="M103.936,243.301c-0.583,0.603-1.467,1.062-2.694,1.062c-1.22,0-2.089-0.46-2.672-1.062
		c-0.851-0.887-1.063-2.021-1.063-3.543c0-1.505,0.212-2.639,1.063-3.522c0.583-0.604,1.452-1.063,2.672-1.063
		c1.227,0,2.11,0.46,2.694,1.063c0.852,0.884,1.062,2.018,1.062,3.522C104.998,241.28,104.788,242.414,103.936,243.301z
		 M102.573,237.297c-0.336-0.337-0.797-0.513-1.331-0.513c-0.53,0-0.972,0.176-1.308,0.513c-0.549,0.549-0.62,1.486-0.62,2.461
		s0.071,1.915,0.62,2.462c0.336,0.337,0.778,0.532,1.308,0.532c0.534,0,0.994-0.195,1.331-0.532
		c0.548-0.547,0.619-1.487,0.619-2.462S103.121,237.846,102.573,237.297z"/>
	<path fill="#FFFFFF" d="M112.39,237.385c-0.408-0.405-0.727-0.601-1.346-0.601c-0.974,0-1.789,0.777-1.789,2.019v5.454h-1.806
		v-8.979h1.771v0.973c0.458-0.636,1.382-1.079,2.391-1.079c0.868,0,1.523,0.229,2.142,0.85L112.39,237.385z"/>
	<path fill="#FFFFFF" d="M117.668,247.994c-1.363,0-2.232-0.318-3.171-1.188l1.153-1.151c0.566,0.532,1.06,0.796,1.946,0.796
		c1.524,0,2.11-1.079,2.11-2.281v-1.153c-0.656,0.778-1.401,1.028-2.322,1.028c-0.902,0-1.646-0.301-2.143-0.798
		c-0.866-0.868-1.01-2.126-1.01-3.647c0-1.524,0.144-2.782,1.01-3.649c0.498-0.496,1.259-0.778,2.161-0.778
		c0.958,0,1.684,0.247,2.355,1.063v-0.957h1.755v8.926C121.511,246.399,120.061,247.994,117.668,247.994z M117.88,236.784
		c-1.629,0-1.84,1.397-1.84,2.815s0.211,2.814,1.84,2.814c1.629,0,1.825-1.396,1.825-2.814S119.509,236.784,117.88,236.784z"/>
	<path fill="#FFFFFF" d="M129.221,244.257v-0.813c-0.657,0.653-1.275,0.92-2.393,0.92c-1.116,0-1.859-0.267-2.408-0.814
		c-0.46-0.479-0.708-1.17-0.708-1.931c0-1.506,1.045-2.587,3.1-2.587h2.373v-0.637c0-1.135-0.567-1.683-1.965-1.683
		c-0.992,0-1.471,0.229-1.965,0.868l-1.187-1.117c0.849-0.992,1.734-1.291,3.222-1.291c2.461,0,3.703,1.044,3.703,3.081v6.004
		H129.221z M129.185,240.289h-2.105c-1.064,0-1.613,0.479-1.613,1.292c0,0.816,0.512,1.276,1.646,1.276
		c0.69,0,1.205-0.052,1.684-0.512c0.265-0.266,0.389-0.691,0.389-1.328V240.289z"/>
	<path fill="#FFFFFF" d="M139.251,244.257v-5.474c0-1.398-0.798-1.999-1.808-1.999c-1.011,0-1.859,0.618-1.859,1.999v5.474h-1.807
		v-8.979h1.771v0.904c0.62-0.675,1.489-1.011,2.391-1.011c0.92,0,1.683,0.299,2.214,0.816c0.69,0.67,0.901,1.522,0.901,2.531v5.737
		H139.251z"/>
	<path fill="#FFFFFF" d="M143.789,233.508v-1.915h1.913v1.915H143.789z M143.841,244.257v-8.979h1.806v8.979H143.841z"/>
	<path fill="#FFFFFF" d="M151.424,244.363c-1.468,0-2.709-0.249-3.771-1.293l1.186-1.187c0.726,0.743,1.702,0.939,2.585,0.939
		c1.099,0,1.965-0.392,1.965-1.242c0-0.602-0.334-0.99-1.202-1.062l-1.435-0.123c-1.682-0.141-2.657-0.903-2.657-2.48
		c0-1.753,1.506-2.744,3.384-2.744c1.346,0,2.494,0.282,3.33,1.011l-1.135,1.15c-0.566-0.479-1.363-0.657-2.215-0.657
		c-1.079,0-1.628,0.48-1.628,1.152c0,0.531,0.284,0.938,1.24,1.026l1.418,0.122c1.681,0.145,2.672,0.94,2.672,2.535
		C155.16,243.389,153.566,244.363,151.424,244.363z"/>
	<path fill="#FFFFFF" d="M158.691,240.289c0,1.54,0.815,2.517,2.284,2.517c1.011,0,1.542-0.284,2.179-0.922l1.152,1.081
		c-0.924,0.92-1.789,1.398-3.365,1.398c-2.25,0-4.041-1.188-4.041-4.605c0-2.903,1.508-4.586,3.811-4.586
		c2.408,0,3.807,1.77,3.807,4.321v0.796H158.691z M162.482,237.81c-0.285-0.672-0.923-1.134-1.771-1.134
		c-0.851,0-1.507,0.462-1.789,1.134c-0.177,0.409-0.213,0.673-0.23,1.222h4.038C162.713,238.482,162.66,238.219,162.482,237.81z"/>
	<path fill="#FFFFFF" d="M171.854,237.385c-0.405-0.405-0.725-0.601-1.345-0.601c-0.975,0-1.789,0.777-1.789,2.019v5.454h-1.806
		v-8.979h1.77v0.973c0.46-0.636,1.384-1.079,2.392-1.079c0.869,0,1.522,0.229,2.143,0.85L171.854,237.385z"/>
	<path fill="#FFFFFF" d="M174.641,247.002v-4.798h2.053v3.115L174.641,247.002z"/>
	<path fill="#FFFFFF" d="M187.306,244.363c-2.018,0-4.002-1.239-4.002-4.605c0-3.363,1.984-4.586,4.002-4.586
		c1.241,0,2.108,0.354,2.96,1.257l-1.24,1.205c-0.566-0.62-1.01-0.85-1.72-0.85c-0.69,0-1.272,0.283-1.663,0.796
		c-0.391,0.495-0.532,1.133-0.532,2.178c0,1.044,0.142,1.701,0.532,2.196c0.391,0.513,0.973,0.798,1.663,0.798
		c0.71,0,1.153-0.23,1.72-0.85l1.24,1.185C189.414,243.991,188.547,244.363,187.306,244.363z"/>
	<path fill="#FFFFFF" d="M192.306,235.03v-3.384h1.79v3.384H192.306z"/>
	<path fill="#FFFFFF" d="M198.244,240.289c0,1.54,0.813,2.517,2.283,2.517c1.009,0,1.54-0.284,2.178-0.922l1.15,1.081
		c-0.92,0.92-1.788,1.398-3.362,1.398c-2.249,0-4.04-1.188-4.04-4.605c0-2.903,1.505-4.586,3.809-4.586
		c2.407,0,3.807,1.77,3.807,4.321v0.796H198.244z M202.032,237.81c-0.282-0.672-0.921-1.134-1.771-1.134
		c-0.852,0-1.505,0.462-1.789,1.134c-0.176,0.409-0.213,0.673-0.229,1.222h4.036C202.265,238.482,202.21,238.219,202.032,237.81z"/>
	<path fill="#FFFFFF" d="M209.371,244.363c-1.469,0-2.711-0.249-3.771-1.293l1.186-1.187c0.725,0.743,1.7,0.939,2.586,0.939
		c1.098,0,1.964-0.392,1.964-1.242c0-0.602-0.335-0.99-1.202-1.062l-1.436-0.123c-1.684-0.141-2.657-0.903-2.657-2.48
		c0-1.753,1.507-2.744,3.384-2.744c1.344,0,2.496,0.282,3.33,1.011l-1.135,1.15c-0.565-0.479-1.365-0.657-2.216-0.657
		c-1.077,0-1.627,0.48-1.627,1.152c0,0.531,0.284,0.938,1.239,1.026l1.416,0.122c1.684,0.145,2.675,0.94,2.675,2.535
		C213.106,243.389,211.513,244.363,209.371,244.363z"/>
	<path fill="#FFFFFF" d="M217.803,244.257c-1.682,0-2.461-1.204-2.461-2.496v-4.943h-1.027v-1.381h1.027v-2.729h1.807v2.729h1.735
		v1.381h-1.735v4.855c0,0.653,0.319,1.044,0.994,1.044h0.741v1.54H217.803z"/>
	<path opacity="0.76" fill="#FFFFFF" d="M229.783,239.067v5.189h-1.913v-5.189l-3.772-7.421h2.092l2.638,5.546l2.637-5.546h2.091
		L229.783,239.067z"/>
	<path opacity="0.76" fill="#FFFFFF" d="M234.496,244.257v-1.646l5.83-9.247h-5.58v-1.717h7.828v1.558l-5.861,9.335h5.861v1.718
		H234.496z"/>
	<path opacity="0.76" fill="#FFFFFF" d="M245.077,244.257v-12.61h1.913v12.61H245.077z"/>
	<path fill="#FFFFFF" d="M256.842,240.502h-1.418l-0.389-8.855h2.197L256.842,240.502z M255.143,244.257v-1.931h1.982v1.931H255.143
		z"/>
</g>
<g>
	<line fill="none" stroke="#FFFFFF" stroke-width="1.1664" x1="227.505" y1="104.158" x2="226.903" y2="115.643"/>
	<line fill="none" stroke="#FFFFFF" stroke-width="1.1664" x1="233.98" y1="114.719" x2="226.544" y2="115.426"/>
</g>
</svg>
