<?xml version="1.0" encoding="utf-8"?>
<!-- Generator: Adobe Illustrator 13.0.0, SVG Export Plug-In . SVG Version: 6.00 Build 14948)  -->
<!DOCTYPE svg PUBLIC "-//W3C//DTD SVG 1.1//EN" "http://www.w3.org/Graphics/SVG/1.1/DTD/svg11.dtd">
<svg version="1.1" id="Calque_1" xmlns="http://www.w3.org/2000/svg" xmlns:xlink="http://www.w3.org/1999/xlink" x="0px" y="0px"
	 width="300px" height="300px" viewBox="0 0 300 300" enable-background="new 0 0 300 300" xml:space="preserve">
<g>
	<g>
		<path fill="#FFFFFF" d="M77.628,117.178c0,4.111,3.326,7.442,7.432,7.442c4.104,0,7.445-3.331,7.445-7.442
			c0-4.107-3.341-7.429-7.445-7.429C80.954,109.749,77.628,113.07,77.628,117.178z"/>
		<path fill="#FFFFFF" d="M103.814,79.31l-0.077-0.734l-0.667-6.377l-56.195,9.423l19.772,89.528l45.463-9.356L92.799,78.48
			L103.814,79.31z M98.144,118.969c0,7.224-12.219,26.873-12.219,26.873c-0.474,0.768-1.241,0.768-1.71,0
			c0,0-12.243-19.67-12.243-26.873c0-7.219,5.875-13.077,13.088-13.077C92.289,105.892,98.144,111.75,98.144,118.969z"/>
		<path fill="#FFFFFF" d="M199.5,84.35l-3.717-19.22l-41.223,7.068l0.76,10.98l0.178,0.014l10.373,91.334l44.918-5.879
			L195.703,83.98L199.5,84.35z M178.965,109.212c0.273-0.265,0.641-0.428,1.051-0.428c0.412,0,0.791,0.163,1.059,0.428
			c0.262,0.271,0.438,0.64,0.438,1.064c0,0.413-0.176,0.775-0.438,1.052c-0.268,0.269-0.646,0.428-1.059,0.428
			c-0.41,0-0.777-0.159-1.051-0.428c-0.271-0.276-0.43-0.639-0.43-1.052C178.535,109.852,178.693,109.483,178.965,109.212z
			 M176.568,112.908c0,0.413-0.166,0.781-0.434,1.055c-0.271,0.269-0.637,0.428-1.059,0.428c-0.412,0-0.779-0.159-1.051-0.428
			c-0.27-0.273-0.434-0.642-0.434-1.055c0-0.417,0.164-0.786,0.434-1.061c0.271-0.265,0.639-0.43,1.051-0.43
			c0.422,0,0.787,0.165,1.059,0.43C176.402,112.122,176.568,112.491,176.568,112.908z M172.684,106.329
			c0.27-0.262,0.639-0.436,1.049-0.436c0.412,0,0.785,0.174,1.055,0.436c0.268,0.266,0.441,0.641,0.441,1.058
			c0,0.418-0.174,0.778-0.441,1.052c-0.27,0.272-0.643,0.432-1.055,0.432c-0.41,0-0.779-0.159-1.049-0.432
			c-0.271-0.273-0.439-0.634-0.439-1.052C172.244,106.97,172.412,106.595,172.684,106.329z M199.766,138.135
			c0.186,0.012,0.326,0.14,0.326,0.295c0.014,0.166-0.117,0.329-0.309,0.368l-13.422,4.193c-0.197,0.06-0.391,0.011-0.475-0.131
			c-0.094-0.124-0.049-0.305,0.102-0.425l4.936-3.978l-2.58-8.342c-2.244,0.104-4.709-1.201-6.434-4.226
			c0.109,5.08-2.242,8.049-4.979,8.807l-0.053,8.792l5.771,2.268c0.172,0.073,0.268,0.231,0.223,0.391
			c-0.041,0.159-0.211,0.269-0.412,0.269H168.4c-0.199,0-0.367-0.109-0.422-0.269c-0.039-0.159,0.055-0.317,0.232-0.391l5.9-2.313
			l0.021-8.73c-3.947-1.042-7.221-6.705-3.666-17.238c3.094-0.076,6.186-0.144,9.277-0.229c-0.037-0.784-0.047-1.617-0.029-2.499
			c2.973-0.997,5.939-2.011,8.92-3.007c7.205,8.669,5.887,15.267,2.371,17.541l2.578,8.404L199.766,138.135z"/>
		<path opacity="0.76" fill="#FFFFFF" d="M155.32,83.179l-51.506-3.869l8.622,82.417l-0.325,0.066l3.625,15.641h50.466l-0.33-2.907
			l-4.203,0.551L155.32,83.179z M151.67,134.235c-2.334,3.063-6.705,3.529-9.733,1.021c-0.51-0.406-0.92-0.882-1.283-1.377
			l-9.965,3.676c0.254,1.862-0.17,3.827-1.356,5.398c-2.351,3.07-6.713,3.516-9.752,1.028c-3.049-2.5-3.623-7.004-1.272-10.084
			c1.211-1.573,2.942-2.447,4.776-2.579l1.155-10.92c-0.547-0.237-1.08-0.556-1.571-0.969c-3.049-2.509-3.617-7.007-1.268-10.077
			c2.337-3.047,6.708-3.519,9.755-1.032c3.028,2.511,3.597,7.015,1.266,10.083c-1.218,1.56-2.927,2.443-4.748,2.597l-1.159,10.909
			c0.536,0.272,1.046,0.578,1.553,0.985c0.46,0.39,0.88,0.83,1.24,1.335l9.983-3.695c-0.249-1.843,0.187-3.78,1.372-5.36
			c2.339-3.053,6.711-3.511,9.753-1.029C153.451,126.659,154.018,131.16,151.67,134.235z"/>
		<polygon fill="#FFFFFF" points="103.814,79.31 92.799,78.48 112.111,161.793 112.436,161.727 		"/>
		<polygon opacity="0.76" fill="#FFFFFF" points="103.814,79.31 92.799,78.48 112.111,161.793 112.436,161.727 		"/>
		<polygon fill="#FFFFFF" points="155.32,83.179 161.668,175.077 165.871,174.526 155.498,83.192 		"/>
		<polygon opacity="0.76" fill="#FFFFFF" points="155.32,83.179 161.668,175.077 165.871,174.526 155.498,83.192 		"/>
		<path opacity="0.76" fill="#FFFFFF" d="M243.895,88.691L199.5,84.35l16.184,83.657l-4.895,0.641l2.545,14.283h38.791
			L243.895,88.691z M226.73,139.197c-7.205,0-13.045-5.837-13.045-13.045c0-7.2,5.84-13.041,13.045-13.041
			c7.203,0,13.043,5.841,13.043,13.041C239.773,133.36,233.934,139.197,226.73,139.197z"/>
		<polygon fill="#FFFFFF" points="199.5,84.35 195.703,83.98 210.789,168.647 215.684,168.007 		"/>
		<polygon opacity="0.76" fill="#FFFFFF" points="199.5,84.35 195.703,83.98 210.789,168.647 215.684,168.007 		"/>
	</g>
	<g>
		<path fill="#FFFFFF" d="M64.106,218.237v15.633h-5.764v-15.633L46.98,195.883h6.297l7.945,16.7l7.947-16.7h6.3L64.106,218.237z"/>
		<path fill="#FFFFFF" d="M78.309,233.87v-4.961l17.552-27.851H79.054v-5.176h23.583v4.698l-17.656,28.113h17.656v5.176H78.309z"/>
		<path fill="#FFFFFF" d="M110.169,233.87v-37.987h5.763v37.987H110.169z"/>
		<path opacity="0.76" fill="#FFFFFF" d="M140.265,218.933h-8.64v14.938h-5.764v-37.987h14.403c7.415,0,12.163,4.91,12.163,11.526
			S147.679,218.933,140.265,218.933z M139.944,201.059h-8.319v12.644h8.319c4.005,0,6.722-2.292,6.722-6.293
			C146.666,203.409,143.95,201.059,139.944,201.059z"/>
		<path opacity="0.76" fill="#FFFFFF" d="M159.432,233.87v-37.987h5.764v32.812h18.297v5.176H159.432z"/>
		<path opacity="0.76" fill="#FFFFFF" d="M211.885,233.87l-2.613-7.629h-14.99l-2.609,7.629h-6.137l13.924-37.987h4.641
			l13.922,37.987H211.885z M201.914,204.474l-5.926,16.861h11.684L201.914,204.474z"/>
		<path opacity="0.76" fill="#FFFFFF" d="M246.738,233.87l-17.547-26.73v26.73h-5.764v-37.987h5.279l17.553,26.678v-26.678h5.76
			v37.987H246.738z"/>
	</g>
	<g>
		<line fill="none" stroke="#FFFFFF" stroke-width="1.1664" x1="226.826" y1="115.811" x2="226.225" y2="127.295"/>
		<line fill="none" stroke="#FFFFFF" stroke-width="1.1664" x1="233.303" y1="126.371" x2="225.865" y2="127.078"/>
	</g>
</g>
</svg>
