<?xml version="1.0" encoding="utf-8"?>
<!-- Generator: Adobe Illustrator 13.0.0, SVG Export Plug-In . SVG Version: 6.00 Build 14948)  -->
<!DOCTYPE svg PUBLIC "-//W3C//DTD SVG 1.1//EN" "http://www.w3.org/Graphics/SVG/1.1/DTD/svg11.dtd">
<svg version="1.1" id="Calque_1" xmlns="http://www.w3.org/2000/svg" xmlns:xlink="http://www.w3.org/1999/xlink" x="0px" y="0px"
	 width="300px" height="300px" viewBox="0 0 300 300" enable-background="new 0 0 300 300" xml:space="preserve">
<g>
	<g>
		<path fill="#FFFFFF" d="M77.628,142.647c0,4.111,3.325,7.442,7.432,7.442c4.104,0,7.444-3.331,7.444-7.442
			c0-4.107-3.341-7.429-7.444-7.429C80.953,135.219,77.628,138.54,77.628,142.647z"/>
		<path fill="#FFFFFF" d="M103.814,104.779l-0.077-0.734l-0.667-6.377l-56.195,9.423l19.772,89.528l45.463-9.356L92.799,103.95
			L103.814,104.779z M98.144,144.438c0,7.224-12.219,26.873-12.219,26.873c-0.474,0.768-1.241,0.768-1.71,0
			c0,0-12.243-19.67-12.243-26.873c0-7.219,5.875-13.077,13.088-13.077C92.289,131.361,98.144,137.22,98.144,144.438z"/>
		<path fill="#FFFFFF" d="M199.5,109.819l-3.717-19.22l-41.223,7.068l0.76,10.98l0.178,0.014l10.373,91.334l44.918-5.879
			l-15.086-84.667L199.5,109.819z M178.965,134.682c0.273-0.265,0.641-0.428,1.051-0.428c0.412,0,0.791,0.163,1.059,0.428
			c0.262,0.271,0.438,0.64,0.438,1.064c0,0.413-0.176,0.775-0.438,1.052c-0.268,0.269-0.646,0.428-1.059,0.428
			c-0.41,0-0.777-0.159-1.051-0.428c-0.271-0.276-0.43-0.639-0.43-1.052C178.535,135.321,178.693,134.953,178.965,134.682z
			 M176.568,138.378c0,0.413-0.166,0.781-0.434,1.055c-0.271,0.269-0.637,0.428-1.059,0.428c-0.412,0-0.779-0.159-1.051-0.428
			c-0.27-0.273-0.434-0.642-0.434-1.055c0-0.417,0.164-0.786,0.434-1.061c0.271-0.265,0.639-0.43,1.051-0.43
			c0.422,0,0.787,0.165,1.059,0.43C176.402,137.592,176.568,137.961,176.568,138.378z M172.684,131.799
			c0.27-0.262,0.639-0.436,1.049-0.436c0.412,0,0.785,0.174,1.055,0.436c0.268,0.266,0.441,0.641,0.441,1.058
			c0,0.418-0.174,0.778-0.441,1.052c-0.27,0.272-0.643,0.432-1.055,0.432c-0.41,0-0.779-0.159-1.049-0.432
			c-0.271-0.273-0.439-0.634-0.439-1.052C172.244,132.439,172.412,132.064,172.684,131.799z M199.766,163.604
			c0.186,0.012,0.326,0.14,0.326,0.295c0.014,0.166-0.117,0.329-0.309,0.368l-13.422,4.193c-0.197,0.06-0.391,0.011-0.475-0.131
			c-0.094-0.124-0.049-0.305,0.102-0.425l4.936-3.978l-2.58-8.342c-2.244,0.104-4.709-1.201-6.434-4.226
			c0.109,5.08-2.242,8.049-4.979,8.807l-0.053,8.792l5.771,2.268c0.172,0.073,0.268,0.231,0.223,0.391
			c-0.041,0.159-0.211,0.269-0.412,0.269H168.4c-0.199,0-0.367-0.109-0.422-0.269c-0.039-0.159,0.055-0.317,0.232-0.391l5.9-2.313
			l0.021-8.73c-3.947-1.042-7.221-6.705-3.666-17.238c3.094-0.076,6.186-0.144,9.277-0.229c-0.037-0.784-0.047-1.617-0.029-2.499
			c2.973-0.997,5.939-2.011,8.92-3.007c7.205,8.669,5.887,15.267,2.371,17.541l2.578,8.404L199.766,163.604z"/>
		<path opacity="0.76" fill="#FFFFFF" d="M155.32,108.648l-51.506-3.869l8.621,82.417l-0.325,0.066l3.625,15.641h50.466l-0.33-2.907
			l-4.203,0.551L155.32,108.648z M151.67,159.705c-2.334,3.063-6.705,3.529-9.733,1.021c-0.51-0.406-0.92-0.882-1.282-1.377
			l-9.965,3.676c0.254,1.862-0.171,3.827-1.356,5.398c-2.351,3.07-6.713,3.516-9.752,1.028c-3.049-2.5-3.623-7.004-1.272-10.084
			c1.211-1.573,2.942-2.447,4.776-2.579l1.155-10.92c-0.548-0.237-1.08-0.556-1.571-0.969c-3.049-2.509-3.616-7.007-1.268-10.077
			c2.337-3.047,6.707-3.519,9.755-1.032c3.028,2.511,3.598,7.015,1.266,10.083c-1.218,1.56-2.927,2.443-4.748,2.597l-1.158,10.909
			c0.536,0.272,1.046,0.578,1.553,0.985c0.461,0.39,0.881,0.83,1.24,1.335l9.983-3.695c-0.249-1.843,0.187-3.78,1.371-5.36
			c2.34-3.053,6.712-3.511,9.753-1.029C153.451,152.129,154.018,156.63,151.67,159.705z"/>
		<polygon fill="#FFFFFF" points="103.814,104.779 92.799,103.95 112.11,187.263 112.436,187.196 		"/>
		<polygon opacity="0.76" fill="#FFFFFF" points="103.814,104.779 92.799,103.95 112.11,187.263 112.436,187.196 		"/>
		<polygon fill="#FFFFFF" points="155.32,108.648 161.668,200.547 165.871,199.996 155.498,108.662 		"/>
		<polygon opacity="0.76" fill="#FFFFFF" points="155.32,108.648 161.668,200.547 165.871,199.996 155.498,108.662 		"/>
		<path opacity="0.76" fill="#FFFFFF" d="M243.895,114.161l-44.395-4.342l16.184,83.657l-4.895,0.641l2.545,14.283h38.791
			L243.895,114.161z M226.73,164.667c-7.205,0-13.045-5.837-13.045-13.045c0-7.2,5.84-13.041,13.045-13.041
			c7.203,0,13.043,5.841,13.043,13.041C239.773,158.83,233.934,164.667,226.73,164.667z"/>
		<polygon fill="#FFFFFF" points="199.5,109.819 195.703,109.45 210.789,194.117 215.684,193.477 		"/>
		<polygon opacity="0.76" fill="#FFFFFF" points="199.5,109.819 195.703,109.45 210.789,194.117 215.684,193.477 		"/>
	</g>
	<g>
		<line fill="none" stroke="#FFFFFF" stroke-width="1.1664" x1="226.826" y1="141.28" x2="226.225" y2="152.765"/>
		<line fill="none" stroke="#FFFFFF" stroke-width="1.1664" x1="233.303" y1="151.841" x2="225.865" y2="152.548"/>
	</g>
</g>
</svg>
